<?xml version="1.0" encoding="utf-8"?>
<!-- Generator: Adobe Illustrator 23.0.0, SVG Export Plug-In . SVG Version: 6.00 Build 0)  -->
<svg version="1.1" id="Layer_1" xmlns="http://www.w3.org/2000/svg" xmlns:xlink="http://www.w3.org/1999/xlink" x="0px" y="0px"
	 viewBox="0 0 1000 1000" style="enable-background:new 0 0 1000 1000;" xml:space="preserve">
<style type="text/css">
	.st0{fill:#ABACB2;}
	.st1{fill:#191919;}
	.st2{fill:#3F3D3C;}
</style>
<g>
	<path class="st0" d="M731.64,510h36.73c23.27,0,42.14,18.87,42.14,42.14v258.73c0,23.27-18.87,42.14-42.14,42.14h-36.73
		c-23.27,0-42.14-18.87-42.14-42.14V552.14C689.5,528.87,708.37,510,731.64,510z"/>
	<path class="st1" d="M805.34,752H694.66c-13.07,0-23.66,10.59-23.66,23.66v18.68c0,13.07,10.59,23.66,23.66,23.66h110.68
		c13.07,0,23.66-10.59,23.66-23.66v-18.68C829,762.59,818.41,752,805.34,752z"/>
	<path class="st1" d="M508.08,311h340.85c18.82,0,34.08,15.26,34.08,34.08v186.85c0,18.82-15.26,34.08-34.08,34.08H508.08
		c-18.82,0-34.08-15.26-34.08-34.08V345.08C474,326.26,489.26,311,508.08,311z"/>
	<path class="st2" d="M184.29,369h123.41c12.86,0,23.29,10.43,23.29,23.29v70.41c0,12.86-10.43,23.29-23.29,23.29H184.29
		c-12.86,0-23.29-10.43-23.29-23.29v-70.41C161,379.43,171.43,369,184.29,369z"/>
	<path class="st0" d="M547.48,571.81L213.27,696.92c-15.62,5.85-32.27-5.7-32.27-22.38V202.46c0-16.68,16.65-28.23,32.27-22.38
		l334.21,125.11c9.33,3.49,15.52,12.41,15.52,22.38v221.86C563,559.4,556.82,568.32,547.48,571.81z"/>
</g>
</svg>
