<?xml version="1.0" encoding="utf-8"?>
<!-- Generator: Adobe Illustrator 23.0.0, SVG Export Plug-In . SVG Version: 6.00 Build 0)  -->
<svg version="1.1" id="Layer_1" xmlns="http://www.w3.org/2000/svg" xmlns:xlink="http://www.w3.org/1999/xlink" x="0px" y="0px"
	 viewBox="0 0 1920 540" style="enable-background:new 0 0 1920 540;" xml:space="preserve">
<style type="text/css">
	.st0{fill:#E51F1F;}
	.st1{fill:#FFFFFF;}
	.st2{font-family:'MyriadPro-Regular';}
	.st3{font-size:180px;}
	.st4{fill:#243ED3;}
	.st5{fill:#F72121;}
	.st6{font-size:80px;}
	.st7{fill:#ABACB2;}
	.st8{fill:#191919;}
	.st9{fill:#3F3D3C;}
	.st10{fill:#E8D14D;}
</style>
<rect x="627" y="-149" class="st0" width="1428" height="798"/>
<circle class="st1" cx="360" cy="25" r="651"/>
<text transform="matrix(1 0 0 1 181.8696 214.8306)"><tspan x="0" y="0" class="st0 st2 st3">GRAND</tspan><tspan x="-91.98" y="216" class="st4 st2 st3">OPENING</tspan><tspan x="612.53" y="216" class="st4 st2 st3">!</tspan></text>
<g>
	<circle class="st1" cx="1678.76" cy="189.11" r="170.47"/>
	<polygon class="st5" points="1678.76,51.19 1709.73,146.49 1809.93,146.49 1728.86,205.38 1759.82,300.68 1678.76,241.79 
		1597.71,300.68 1628.67,205.38 1547.6,146.49 1647.8,146.49 	"/>
</g>
<text transform="matrix(1 0 0 1 1064.5942 509.667)"><tspan x="0" y="0" class="st2 st3">Red Star </tspan><tspan x="658.79" y="0" class="st2 st6">LTD.</tspan></text>
<g>
	<path class="st7" d="M1288.63,234.32L1288.63,234.32c10.87,2.67,17.53,13.64,14.86,24.52l-17.72,72.25
		c-2.67,10.87-13.64,17.53-24.52,14.86h0c-10.87-2.67-17.53-13.64-14.86-24.52l17.72-72.25
		C1266.77,238.31,1277.75,231.66,1288.63,234.32z"/>
	<path class="st8" d="M1284.28,316.75l-29.94-7.34c-5.93-1.45-11.92,2.17-13.37,8.11v0c-1.45,5.93,2.17,11.92,8.11,13.37l29.94,7.34
		c5.93,1.45,11.92-2.17,13.37-8.11v0C1293.84,324.19,1290.21,318.2,1284.28,316.75z"/>
	<path class="st8" d="M1247.79,155.65l66.91,16.41c18.28,4.48,29.46,22.94,24.98,41.21l-4.12,16.79
		c-4.48,18.28-22.94,29.46-41.21,24.98l-66.91-16.41c-18.28-4.48-29.46-22.94-24.98-41.21l4.12-16.79
		C1211.06,162.35,1229.51,151.16,1247.79,155.65z"/>
	<path class="st9" d="M1127.24,146.09l17.25,4.23c10.51,2.58,16.95,13.19,14.37,23.71v0c-2.58,10.51-13.19,16.95-23.71,14.37
		l-17.25-4.23c-10.51-2.58-16.95-13.19-14.37-23.71v0C1106.11,149.94,1116.72,143.51,1127.24,146.09z"/>
	<path class="st7" d="M1217.78,238.27l-118.75,14.04c-5.55,0.66-10.05-4.43-8.72-9.86L1128,88.82c1.33-5.43,7.67-7.86,12.29-4.71
		l98.78,67.39c2.76,1.88,4.06,5.28,3.26,8.52l-17.71,72.2C1223.83,235.47,1221.1,237.88,1217.78,238.27z"/>
</g>
<polygon class="st10" points="1079,112 1027,52 1019,76 976,8 1020,96 1027,69 "/>
<polygon class="st10" points="1059.86,149.94 946.17,130.5 956.3,164.6 847,128 974.15,186.01 960.3,149.48 "/>
<polygon class="st10" points="1065.44,202.58 979.5,228.82 1000.66,248.12 910.58,261.38 1021.81,256.26 997.09,236.63 "/>
<polygon class="st0" points="84.41,100.65 64.78,79.49 36.23,83.67 50.28,58.47 37.48,32.6 65.79,38.18 86.44,18.01 89.89,46.66 
	115.44,60.07 89.26,72.2 "/>
<polygon class="st0" points="126.76,260.53 107.61,256.63 93.54,270.2 91.33,250.78 74.08,241.59 91.87,233.49 95.28,214.24 
	108.48,228.65 127.84,225.95 118.21,242.96 "/>
<polygon class="st0" points="880.65,59.35 863.09,58.5 852.43,72.49 847.81,55.52 831.22,49.71 845.93,40.07 846.33,22.5 
	860.04,33.51 876.88,28.46 870.64,44.9 "/>
<polygon class="st0" points="900.76,287 892.18,279.02 880.74,281.56 885.69,270.93 879.73,260.83 891.37,262.25 899.13,253.47 
	901.38,264.97 912.13,269.64 901.88,275.33 "/>
<polygon class="st1" points="136.29,149.35 126.4,142.5 115.14,146.76 118.6,135.23 111.07,125.84 123.1,125.57 129.7,115.51 
	133.68,126.87 145.29,130.04 135.72,137.33 "/>
<polygon class="st1" points="1005.59,491.35 990.75,486.93 978.7,496.65 978.32,481.18 965.36,472.72 979.96,467.57 983.99,452.63 
	993.4,464.92 1008.86,464.15 1000.07,476.89 "/>
<polygon class="st1" points="1332.76,104.88 1326.58,100.25 1319.25,102.72 1321.75,95.4 1317.14,89.2 1324.87,89.31 1329.34,83.01 
	1331.62,90.39 1339,92.7 1332.68,97.15 "/>
<polygon class="st1" points="1421.71,289.12 1412.64,288.32 1406.85,295.33 1404.81,286.47 1396.35,283.12 1404.15,278.44 
	1404.71,269.36 1411.58,275.33 1420.39,273.07 1416.83,281.44 "/>
<polygon class="st1" points="1871.71,335.71 1878.99,328.26 1876.98,318.04 1886.31,322.66 1895.41,317.59 1893.9,327.9 
	1901.53,334.98 1891.26,336.73 1886.88,346.18 1882.05,336.95 "/>
<polygon class="st1" points="1874.88,62.53 1865.01,58.86 1856.4,64.91 1856.84,54.39 1848.42,48.07 1858.56,45.24 1861.97,35.28 
	1867.8,44.04 1878.33,44.21 1871.79,52.47 "/>
</svg>
