<?xml version="1.0" encoding="utf-8"?>
<!-- Generator: Adobe Illustrator 22.0.0, SVG Export Plug-In . SVG Version: 6.00 Build 0)  -->
<svg version="1.1" id="Layer_1" xmlns="http://www.w3.org/2000/svg" xmlns:xlink="http://www.w3.org/1999/xlink" x="0px" y="0px"
	 viewBox="0 0 1920 540" style="enable-background:new 0 0 1920 540;" xml:space="preserve">
<style type="text/css">
	.st0{fill:#E51F1F;}
	.st1{fill:#FFFFFF;}
	.st2{fill:#020202;}
	.st3{fill:none;stroke:#282828;stroke-width:5;stroke-linecap:round;stroke-miterlimit:10;}
</style>
<rect class="st0" width="1920" height="540"/>
<circle class="st1" cx="1866" cy="40" r="651"/>
<g>
	<path class="st2" d="M146.2,192.1h-26.7v-9.6h64.9v9.6h-26.8v78h-11.4V192.1z"/>
	<path class="st2" d="M192.8,177.8h11.4v39.4h0.3c1.8-3.3,4.7-6.2,8.2-8.2c3.4-1.9,7.4-3.1,11.7-3.1c8.5,0,22,5.2,22,26.8v37.4H235
		V234c0-10.1-3.8-18.6-14.6-18.6c-7.4,0-13.1,5.2-15.3,11.3c-0.7,1.7-0.8,3.4-0.8,5.5v38h-11.4L192.8,177.8L192.8,177.8z"/>
	<path class="st2" d="M271.3,240.7c0.3,15.5,10,21.8,21.6,21.8c8.2,0,13.3-1.4,17.4-3.3l2.1,8.2c-4,1.8-11.1,4-21.1,4
		c-19.4,0-30.9-12.9-30.9-31.9s11.2-33.8,29.5-33.8c20.7,0,26,17.9,26,29.5c0,2.3-0.1,4-0.4,5.3h-44.2V240.7z M304.9,232.5
		c0.1-7.2-3-18.5-15.9-18.5c-11.7,0-16.6,10.5-17.6,18.5H304.9z"/>
	<path class="st2" d="M424.9,266.2c-5.1,2-15.2,4.8-27,4.8c-13.3,0-24.2-3.4-32.8-11.6c-7.5-7.3-12.2-19-12.2-32.6
		c0-26.1,18.1-45.2,47.5-45.2c10.1,0,18.2,2.2,22,4l-2.9,9.2c-4.7-2.2-10.5-3.8-19.4-3.8c-21.3,0-35.2,13.3-35.2,35.2
		c0,22.2,13.3,35.4,33.8,35.4c7.4,0,12.5-1,15.1-2.3v-26.1H396v-9.1h28.9V266.2z"/>
	<path class="st2" d="M441.6,226.8c0-7.4-0.1-13.8-0.5-19.6h10l0.5,12.5h0.4c2.9-8.5,9.9-13.8,17.6-13.8c1.2,0,2.1,0.1,3.1,0.3V217
		c-1.2-0.3-2.3-0.3-3.9-0.3c-8.1,0-13.8,6-15.3,14.6c-0.3,1.6-0.4,3.5-0.4,5.3v33.5h-11.4v-43.3H441.6z"/>
	<path class="st2" d="M489.2,240.7c0.3,15.5,10,21.8,21.6,21.8c8.2,0,13.3-1.4,17.4-3.3l2.1,8.2c-4,1.8-11.1,4-21.1,4
		c-19.4,0-30.9-12.9-30.9-31.9s11.2-33.8,29.5-33.8c20.7,0,26,17.9,26,29.5c0,2.3-0.1,4-0.4,5.3h-44.2L489.2,240.7L489.2,240.7z
		 M522.8,232.5c0.1-7.2-3-18.5-15.9-18.5c-11.7,0-16.6,10.5-17.6,18.5H522.8z"/>
	<path class="st2" d="M592.2,255c0,5.5,0.3,10.8,0.9,15.1h-10.3l-0.9-7.9h-0.4c-3.5,4.9-10.3,9.4-19.2,9.4c-12.7,0-19.2-9-19.2-18.1
		c0-15.2,13.5-23.5,37.8-23.4v-1.3c0-5.1-1.4-14.6-14.3-14.4c-6,0-12.1,1.7-16.5,4.7l-2.6-7.7c5.2-3.3,12.9-5.5,20.8-5.5
		c19.2,0,23.9,13.1,23.9,25.6V255z M581.1,238c-12.5-0.3-26.7,2-26.7,14.2c0,7.5,4.9,10.9,10.7,10.9c8.3,0,13.7-5.2,15.5-10.5
		c0.4-1.3,0.5-2.6,0.5-3.6V238z"/>
	<path class="st2" d="M623.9,192.1v15.1h16.4v8.7h-16.4v33.9c0,7.8,2.2,12.2,8.6,12.2c3.1,0,4.9-0.3,6.6-0.8l0.5,8.7
		c-2.2,0.8-5.7,1.6-10.1,1.6c-5.3,0-9.6-1.8-12.4-4.8c-3.1-3.5-4.4-9.1-4.4-16.5v-34.3H603v-8.7h9.8v-11.7L623.9,192.1z"/>
	<path class="st2" d="M658.7,240.7c0.3,15.5,10,21.8,21.6,21.8c8.2,0,13.3-1.4,17.4-3.3l2.1,8.2c-4,1.8-11.1,4-21.1,4
		c-19.4,0-30.9-12.9-30.9-31.9s11.2-33.8,29.5-33.8c20.7,0,26,17.9,26,29.5c0,2.3-0.1,4-0.4,5.3h-44.2L658.7,240.7L658.7,240.7z
		 M692.3,232.5c0.1-7.2-3-18.5-15.9-18.5c-11.7,0-16.6,10.5-17.6,18.5H692.3z"/>
	<path class="st2" d="M715.9,258.5c3.5,2.1,9.5,4.4,15.2,4.4c8.2,0,12.1-4,12.1-9.4c0-5.5-3.3-8.3-11.6-11.4
		c-11.4-4.2-16.8-10.3-16.8-17.8c0-10.1,8.3-18.5,21.7-18.5c6.4,0,12,1.7,15.3,3.9l-2.7,8.3c-2.5-1.6-7-3.8-12.9-3.8
		c-6.8,0-10.4,3.9-10.4,8.6c0,5.2,3.6,7.5,11.8,10.8c10.8,4,16.5,9.5,16.5,18.9c0,11.2-8.7,19-23.4,19c-6.9,0-13.3-1.8-17.7-4.4
		L715.9,258.5z"/>
	<path class="st2" d="M782.8,192.1v15.1h16.4v8.7h-16.4v33.9c0,7.8,2.2,12.2,8.6,12.2c3.1,0,4.9-0.3,6.6-0.8l0.5,8.7
		c-2.2,0.8-5.7,1.6-10.1,1.6c-5.3,0-9.6-1.8-12.4-4.8c-3.1-3.5-4.4-9.1-4.4-16.5v-34.3h-9.8v-8.7h9.8v-11.7L782.8,192.1z"/>
	<path class="st2" d="M129.5,339.8c6.9-1.2,15.1-2,24.1-2c16.3,0,27.8,3.9,35.5,10.9c7.9,7.2,12.5,17.3,12.5,31.5
		c0,14.3-4.5,26-12.6,34.1c-8.3,8.2-21.8,12.6-38.9,12.6c-8.2,0-14.8-0.4-20.5-1v-86.1H129.5z M140.8,417.3c2.9,0.4,7,0.5,11.4,0.5
		c24.3,0,37.3-13.5,37.3-37.2c0.1-20.7-11.6-33.8-35.5-33.8c-5.9,0-10.3,0.5-13.3,1.2v69.3H140.8z"/>
	<path class="st2" d="M222.6,396.7c0.3,15.5,10,21.8,21.6,21.8c8.2,0,13.3-1.4,17.4-3.3l2.1,8.2c-4,1.8-11.1,4-21.1,4
		c-19.4,0-30.9-12.9-30.9-31.9s11.2-33.8,29.5-33.8c20.7,0,26,17.9,26,29.5c0,2.3-0.1,4-0.4,5.3h-44.2L222.6,396.7L222.6,396.7z
		 M256.1,388.5c0.1-7.2-3-18.5-15.9-18.5c-11.7,0-16.6,10.5-17.6,18.5H256.1z"/>
	<path class="st2" d="M325.5,411c0,5.5,0.3,10.8,0.9,15.1h-10.3l-0.9-7.9h-0.4c-3.5,4.9-10.3,9.4-19.2,9.4c-12.7,0-19.2-9-19.2-18.1
		c0-15.2,13.5-23.5,37.8-23.4v-1.3c0-5.1-1.4-14.6-14.3-14.4c-6,0-12.1,1.7-16.5,4.7l-2.6-7.7c5.2-3.3,12.9-5.5,20.8-5.5
		c19.2,0,23.9,13.1,23.9,25.6L325.5,411L325.5,411z M314.5,394c-12.5-0.3-26.7,2-26.7,14.2c0,7.5,4.9,10.9,10.7,10.9
		c8.3,0,13.7-5.2,15.5-10.5c0.4-1.3,0.5-2.6,0.5-3.6V394z"/>
	<path class="st2" d="M344,333.8h11.4v92.3H344V333.8z"/>
	<path class="st2" d="M373.1,414.5c3.5,2.1,9.5,4.4,15.2,4.4c8.2,0,12.1-4,12.1-9.4c0-5.5-3.3-8.3-11.6-11.4
		c-11.4-4.2-16.8-10.3-16.8-17.8c0-10.1,8.3-18.5,21.7-18.5c6.4,0,12,1.7,15.3,3.9l-2.7,8.3c-2.5-1.6-7-3.8-12.9-3.8
		c-6.8,0-10.4,3.9-10.4,8.6c0,5.2,3.6,7.5,11.8,10.8c10.8,4,16.5,9.5,16.5,18.9c0,11.2-8.7,19-23.4,19c-6.9,0-13.3-1.8-17.7-4.4
		L373.1,414.5z"/>
	<path class="st2" d="M466.5,345.5c0,3.9-2.7,7-7.3,7c-4.2,0-6.9-3.1-6.9-7s2.9-7.2,7.1-7.2C463.6,338.3,466.5,341.5,466.5,345.5z
		 M453.7,426.1v-62.9h11.4v62.9H453.7z"/>
	<path class="st2" d="M484.1,380.2c0-6.6-0.1-11.8-0.5-17h10.1l0.6,10.4h0.3c3.1-5.8,10.4-11.7,20.8-11.7c8.7,0,22.2,5.2,22.2,26.8
		v37.4h-11.4v-36.3c0-10.1-3.8-18.6-14.6-18.6c-7.4,0-13.3,5.3-15.3,11.7c-0.5,1.4-0.8,3.4-0.8,5.3V426h-11.4L484.1,380.2
		L484.1,380.2z"/>
	<path class="st2" d="M597.6,348.1v15.1H614v8.7h-16.4v33.9c0,7.8,2.2,12.2,8.6,12.2c3.1,0,4.9-0.3,6.6-0.8l0.5,8.7
		c-2.2,0.8-5.7,1.6-10.1,1.6c-5.3,0-9.6-1.8-12.4-4.8c-3.1-3.5-4.4-9.1-4.4-16.5v-34.3h-9.8v-8.7h9.8v-11.7L597.6,348.1z"/>
	<path class="st2" d="M626.9,333.8h11.4v39.4h0.3c1.8-3.3,4.7-6.2,8.2-8.2c3.4-1.9,7.4-3.1,11.7-3.1c8.5,0,22,5.2,22,26.8v37.4H669
		V390c0-10.1-3.8-18.6-14.6-18.6c-7.4,0-13.1,5.2-15.3,11.3c-0.7,1.7-0.8,3.4-0.8,5.5v38h-11.4V333.8z"/>
	<path class="st2" d="M705.4,396.7c0.3,15.5,10,21.8,21.6,21.8c8.2,0,13.3-1.4,17.4-3.3l2.1,8.2c-4,1.8-11.1,4-21.1,4
		c-19.4,0-30.9-12.9-30.9-31.9s11.2-33.8,29.5-33.8c20.7,0,26,17.9,26,29.5c0,2.3-0.1,4-0.4,5.3h-44.2L705.4,396.7L705.4,396.7z
		 M738.9,388.5c0.1-7.2-3-18.5-15.9-18.5c-11.7,0-16.6,10.5-17.6,18.5H738.9z"/>
	<path class="st2" d="M853.2,423.4c-4,2.1-12.5,4.2-23.1,4.2c-24.7,0-43.2-15.6-43.2-44.5c0-27.6,18.6-46,45.8-46
		c10.8,0,17.8,2.3,20.8,3.9l-2.9,9.2c-4.2-2.1-10.3-3.6-17.6-3.6c-20.5,0-34.2,13.1-34.2,36.1c0,21.6,12.4,35.2,33.5,35.2
		c7,0,14-1.4,18.6-3.6L853.2,423.4z"/>
	<path class="st2" d="M922.6,394.1c0,23.3-16.3,33.4-31.3,33.4c-16.9,0-30.2-12.5-30.2-32.4c0-20.9,13.9-33.3,31.2-33.3
		C910.4,361.9,922.6,375,922.6,394.1z M872.8,394.8c0,13.8,7.8,24.2,19,24.2c10.9,0,19.1-10.3,19.1-24.4c0-10.7-5.3-24.1-18.9-24.1
		C878.7,370.5,872.8,382.9,872.8,394.8z"/>
	<path class="st2" d="M989.7,408.8c0,6.6,0.1,12.3,0.5,17.3h-10.1l-0.7-10.3h-0.3c-2.9,5.1-9.6,11.7-20.8,11.7
		c-9.9,0-21.7-5.6-21.7-27.6v-36.8H948v34.7c0,12,3.8,20.2,14,20.2c7.7,0,13-5.3,15.1-10.5c0.7-1.6,1-3.6,1-5.8v-38.5h11.4v45.6
		L989.7,408.8L989.7,408.8z"/>
	<path class="st2" d="M1008.7,380.2c0-6.6-0.1-11.8-0.5-17h10.1l0.7,10.4h0.3c3.1-5.8,10.4-11.7,20.8-11.7c8.7,0,22.2,5.2,22.2,26.8
		v37.4h-11.4v-36.3c0-10.1-3.8-18.6-14.6-18.6c-7.4,0-13.3,5.3-15.3,11.7c-0.5,1.4-0.8,3.4-0.8,5.3V426h-11.4L1008.7,380.2
		L1008.7,380.2z"/>
	<path class="st2" d="M1094.1,348.1v15.1h16.4v8.7h-16.4v33.9c0,7.8,2.2,12.2,8.6,12.2c3.1,0,4.9-0.3,6.6-0.8l0.5,8.7
		c-2.2,0.8-5.7,1.6-10.1,1.6c-5.3,0-9.6-1.8-12.4-4.8c-3.1-3.5-4.4-9.1-4.4-16.5v-34.3h-9.8v-8.7h9.8v-11.7L1094.1,348.1z"/>
	<path class="st2" d="M1123.3,382.8c0-7.4-0.1-13.8-0.5-19.6h10l0.5,12.5h0.4c2.9-8.4,9.9-13.8,17.6-13.8c1.2,0,2.1,0.1,3.1,0.3V373
		c-1.2-0.3-2.3-0.3-3.9-0.3c-8.1,0-13.8,6-15.3,14.6c-0.3,1.6-0.4,3.5-0.4,5.3v33.5h-11.4L1123.3,382.8L1123.3,382.8z"/>
	<path class="st2" d="M1173.3,363.2l13.7,37.2c1.6,4.2,3.1,9.1,4.2,12.9h0.3c1.2-3.8,2.5-8.6,4-13.1l12.5-36.9h12.1l-17.2,44.9
		c-8.2,21.6-13.8,32.5-21.6,39.4c-5.7,4.8-11.2,6.8-14,7.3l-2.9-9.5c2.9-0.9,6.6-2.7,10-5.6c3.1-2.5,6.9-6.9,9.6-12.7
		c0.5-1.2,0.9-2.1,0.9-2.7s-0.3-1.6-0.9-3l-23.1-58h12.4V363.2z"/>
</g>
<g>
	<path d="M1361.5,228.9c-0.3,3-0.8,5.8-2.6,8.5c-0.9,1.4-0.9,3.6-2.2,5.2c-0.3,0.3,0.5,1.6,0.8,2.3c0.6,1.4,1.4,2.6,1.7,4
		c0.3,1.4,0.1,3,0.3,4.4c0.5,3-0.7,4.9-3.2,6.5c-1.1,0.7-2.1,2.6-2.1,3.9c0.2,6.1,0.9,12.1,1.4,18.5c0.9-0.4,1.3-0.6,1.7-0.8
		c0.3,0.6,0.5,1.3,0.8,1.9c2.7-3.5,4.8-7,4.4-11.6c-0.2-2.4-0.4-5,0.2-7.3c0.8-3.3,2.1-6.3,1.5-9.8c-0.2-1.2,0.2-3.4,2.8-2.6
		c0.2,0.1,0.9-0.9,1.1-1.5c0.7-1.5,1.1-3.1,1.9-4.6c0.7-1.3,1.6-1.6,2.6-0.2c0.8,1.1,1.8,2.1,2.4,3.3c1.7,2.9,5.2,2.4,7.5,4.3
		c3.8,3.2,3.7,7.4-0.8,9.6c-0.7,0.4-1.4,1-2,1.5c0.8,0.5,1.5,1,2.4,1.4c0.7,0.3,1.5,0.4,2.6,0.6c0-0.8-0.1-1.4,0-2.1
		c0.2-1.1-1.1-2.7,1.2-3.3c0.9-0.3,0.6-5.6,0.2-6.6c-0.5-1.1-0.4-2.3-0.7-4.1c1.4,0.5,2.2,0.8,3,1.1c0.5-2.6-2-2.5-3.1-3
		c-2.8-1.2-5.9-1.5-7.3-4.9c-0.5-1.4-3.2-1.4-2.8-3.7c0.2-1.1,0.3-2.3,0.5-3.4c0.2,0,0.5,0,0.7-0.1c0.3,0.6,0.6,1.2,1.1,2.1
		c0.3-0.6,0.6-1.2,1.1-2.2c0.7,1.3,1,2.7,1.9,3.3c1.4,1,3.1,1.9,4.7,2.1c2.7,0.4,4,1.8,4.3,4.3c0.5,4.3,3.8,6.4,6.7,8.9
		c-2.1,2.2,2.1,2.6,1.5,4.6c1.1-0.2,1.9-0.3,2.7-0.5c0-1.9-1.1-3.8,1-5.1c0.1,0-0.5-1.4-1-1.7c-1.2-0.7-2.7-0.9-2-3.1
		c0.2-0.7-1.1-2-1.7-3c-0.1-0.3-0.1-0.6-0.2-0.9c1.1-0.2,3.7,2.1,2.5-1.6c-0.4-1.3,2.7-3,4.6-2.8c1.1,1.8,2.3,3.4,3,5.1
		c0.4,1,0.2,2.3,0.3,3.5c0.8,1,1.6,2.1,2.6,3.2c0.9,0.9,1.5,3,3.3,0.9c0.2-0.2,1.2,0.2,1.8,0.5c1.2,0.5,3.4-0.4,3.7-1.7
		c0.6-2.3,1.7-2.9,3.7-1.7c2.4,1.4,4,0.3,5.1-1.5c0.9-1.6,1.5-3.2,3.8-2.9c0.3,0,0.6-0.7,1.2-1.4c0.7,3.7,1.6,7,1.8,10.3
		c0.2,3.5-0.3,7-0.7,10.5c-0.2,1.5-4.8,4.6-5.9,3.9c-2.3-1.6-3.8,0.5-4.3,1.5c-1.4,2.9-3.5,2.5-5.9,2.4c-1.6,0-3.2,0.5-4.8,0.4
		c-2.8-0.3-5.7,0.9-8.5-0.6c-0.9-0.5-2.9,0.5-3.9,1.4c-1.4,1.2-2.2,3.1-1.1,5c1.2,2,1.1,3.8-0.5,5.9c-0.6-0.3-1.2-0.7-1.9-0.9
		c-1-0.4-2.3-1.1-3.2-0.9c-2.9,0.9-4-0.5-4.4-3c-3,0-5.8,0.1-8.5,0c-1.8-0.1-2.2-1.3-1.5-2.8c0.8-1.9,0.9-3.5-0.7-5.2
		c-0.5-0.5-0.1-2-0.1-3.1c-3.5-0.1-5.2,2.6-7.5,4.3c-0.6,0.4-1.5,0.6-2.1,1.1c-2.6,2.1-4.4,4.7-5.1,7.9c-0.6,2.6-2.3,2.6-4.4,2.5
		c-0.2,4.8-0.6,9.5-0.7,14.3c0,2,0.7,4,0.6,5.9c-0.6,7.5-0.4,15,1.4,22.3c1.3,5.5,3.2,10.9,4.7,16.4c1.5,5.2,3.7,10.1,6.7,14.7
		c0.8,1.3,1.3,2.8,2.2,4.1c2.2,3.1,4.5,6.1,6.9,9.1c0.5,0.6,1.2,1.8,2.4,0.2c0.5-0.7,2.6-1,3.3-0.6c1.9,1.4,2.7,0.3,3.2-1
		c1.7-4.3,6-3.8,8.1,0.1c1.1,2.1,2.6,2.9,5,1.5c1.9-1.1,4.8,1,5.6,4c1,3.4,1.3,7,2.7,10.2c1.1,2.5,3.5,4.4,5.4,6.5
		c2.6,2.8,5.5,5.3,7.9,8.2c3.1,3.8,5.9,7.8,8.7,11.9c0.8,1.2,1.3,2.9,1.2,4.3c-0.3,5.3,1.7,9.8,5,13.5c3.3,3.6,7.2,6.6,10.6,10.2
		c2.5,2.6,4.4,5.7,6.8,8.3c1.6,1.8,3.4,3.2,5.2,4.8c3.1,2.6,6.2,5.1,9.3,7.8c1,0.9,1.7,2.2,2.6,3.2c2.5,2.9,5.7,3,9.2,2.6
		c1.4-0.2,2.7-0.2,4.1-0.1c5.7,0.2,8.4-1.1,10.1-6.4c0.6-1.8,1.5-3.4,2.2-5.1c0.7-1.5-0.7-5.5-2.7-7.1c0.8-0.8,1.5-1.8,2.4-2.2
		c3.6-1.7,4.1-3.3,1.8-6.5c-1.4-1.9-3-3.7-4.5-5.6s0.3-3.2,1.2-4.3c2.6-3,5.5-5.7,8.2-8.6c1.2-1.3,1-5.6,0.2-7.2
		c-1.4-3.1-2.4-6.4-3.7-9.6c-0.3-0.7-0.8-1.6-1.5-1.8c-4.1-1.6-5.2-5.3-6.6-8.8c-0.2-0.5-0.4-1.3-0.8-1.5c-2.7-1.3-2.7-3.8-2.6-6.1
		c0.1-2.3,0.6-4.7,0.9-7c0-0.2,0.2-0.5,0.3-0.7c1.1-2.2,2.4-4.3,3.4-6.6c2.5-5.6,5.8-10.8,9.4-15.8c3-4.2,4.3-9.4,4.8-14.7
		c0.2-2.4,0.7-4.8,1.3-7.1c1.1-4.3,0.7-8.5-0.8-12.7c-0.2-0.4-1.7-0.9-1.8-0.7c-2.5,3.1-6.2,3.9-9.5,5.3c-2.3,1-4.6,2.3-6.5,3.8
		c-2.8,2.3-7.2,1-8.3-2.5c-0.2-0.7-0.4-1.6-0.9-1.9c-3.4-2.2-6.9-4.3-10.5-6.4c-0.9-0.5-2.1-0.5-3.1-0.8c-2.4-0.9-3.6-2.8-4.7-5
		c-1.2-2.4-3.5-4-6.1-5c-1.1-0.4-1.9-1.8-2.6-3c-1.5-2.6-2.6-5.4-4.2-8c-0.5-0.8-1.7-1.2-2.7-1.5c-1.9-0.6-3.3-1.5-3.3-3.8
		c0-0.4-0.3-0.9-0.7-1.3c-3.1-3.5-6.2-7-9.3-10.5c-1.2-1.3-2.5-2.6-3.8-3.9c-0.6-0.6-1.1-1.2-1.2-2.3c1.5,1.3,3,2.6,4.6,3.9
		c0.5,0.4,1.2,0.5,1.8,0.7c0.1-0.6,0.2-1.3,0.2-1.9s0-1.2,0-1.2c0.8,0.6,1.7,1.2,2.6,1.9c1.8,1.6,3.7,3.1,5.4,4.9
		c1.6,1.6,2.9,3.4,4.3,5.2c0.2,0.2,0.4,0.5,0.6,0.5c5.5,0.5,6,5.4,8.2,8.8c1,1.5,2.9,2.5,4.4,3.7c1.4,1.1,2.8,2.2,4.2,3.3
		c2.2,1.8,4.7,3.4,6.4,5.6c2.8,3.7,5.1,7.7,7.6,11.6c0.7,1.1,1.4,2.1,2.2,3.3c2.4-0.7,4.7-1.1,5.6-3.9c0.1-0.4,1-0.6,1.6-1
		c1.7-1.1,3.5-2,5-3.2c2.7-2.1,5.3-4.5,8-6.6c2.1-1.7,4.8-2.8,4.5-6.3c0-0.4,0.3-1.1,0.7-1.4c2-1.3,4.1-2.5,6.1-3.8
		c0.6-0.4,1.5-1.4,1.3-1.9c-0.5-1.8,0.3-2.4,1.8-2.8c0.5-0.1,1.4-0.8,1.3-1c-0.8-3.1,1.6-4,3.7-5.1c-1.9-2.5-2.1-4.3,0.2-6.9
		c1.6-1.8,1.4-5.2,2-7.5c-2.1-1.4-3.7-2.7-5.5-3.6c-0.8-0.4-2-0.3-2.9-0.1c-2.3,0.6-5.6-0.4-6.8-2.3c-0.5-0.8-0.7-1.8-1.2-2.6
		c-0.4-0.8-0.9-1.6-1.7-2.9c-1,3-2,5.8-2.9,8.6c-0.1,0.2-0.1,0.5-0.2,0.8c-0.4,1-7.7,4.7-8.5,4.1c-1-0.6-1.8-1.7-2.3-2.7
		c-0.8-1.5-1.3-3.1-1.9-4.6c-0.2,0.1-0.5,0.1-0.7,0.2c0,1.3,0,2.6,0,4c-0.2,0.1-0.4,0.3-0.7,0.4c-1.1-1.4-2.2-2.9-3.4-4.2
		c-0.8-0.9-1.7-1.6-2.7-2.3c-2-1.5-4.6-2.2-5.9-4.6c-0.4-0.8-1.4-1.2-2.3-2c2.2-1.2,0.5-2.3-0.3-3.3c1.8-0.5,3.4-1.1,5-1.4
		c0.7-0.1,1.6,0.1,2.1,0.6c1.6,1.4,3.1,3.1,4.7,4.6c0.4,0.4,0.9,1.1,1.2,1c4-1.3,7.2,3.3,11.2,1.5c0.7-0.3,1.7,0,2.7,0.1
		c0.3-0.4,0.7-1,1.2-1.5c2.4-3.2,4.6-3.3,6.5,0.1c1.1,1.9,2.2,1.8,3.9,1.5c4-0.7,8-1.3,12-1.9c0.6-0.1,1.2-0.3,1.7-0.5
		c4.8-1.9,9.6-3.9,14.4-5.9c0.5-0.2,1.3-0.6,1.6-0.4c1.6,1.1,3.1,2.3,4.7,3.5c0.4,0.3,0.7,0.8,1.2,1c2.6,0.8,5.1,1.9,7.8,2.2
		c1.5,0.2,3.1-0.9,5.1-1.1c-1.5,1.4-3,2.7-4.7,4.2c2.3,1,5,2.1,7.7,3.3c2,0.8,3-0.6,3.7-1.9c0.6-1.1,1-2.5,0.8-3.6
		c-0.2-1.3-0.9-2.4,0.7-2.9c0.7,1.8,1.4,3.4,2.1,5c0.5,1.2,1.1,2.3,1.7,3.4c2.1,3.7,4,7.5,6.5,10.9c2.8,3.9,6.6,7.1,9.2,11.1
		c2.4,3.7,6.1,5.8,8.7,9.1c1.5,2,2.9,4.1,4.6,5.9c0.9,1.1,2.2,2,3.5,2.6s2.4,0.4,2.8-1.5c0.2-0.9,1-1.7,1.4-2.7
		c0.4-0.8,0.7-1.7,1-2.5c0.5-1.2,1-2.4,1.4-3.6c0.2-0.7,0.5-1.7,0.2-2.1c-1.6-2.3-1.4-4.7-1.1-7.2c0.1-0.8-0.2-1.7-0.5-2.5
		c-1.1-2.5-2.3-4.9-3.4-7.3c-0.2-0.4-0.2-1.2,0-1.4c1.5-1.6,3.1-3.1,4.7-4.6c0.4-0.4,1.2-1,1.1-1.3c-0.7-3.2,2.4-4.7,3.2-7.3
		c0.7-2.4,2-4.6,3.1-6.8c0.2-0.4,0.5-0.8,0.8-1c2.7-1.4,3.5-3.6,2.8-7c-0.2-0.7,0.5-1.8,1-2.5c0.4-0.6,1.2-1,1.9-1.5
		c2.1,1.6,6.1-0.7,8.7-5.4c-0.9-0.7-1.8-1.5-3.1-2.5c1.7,0.2,2.7,0.3,3.7,0.6c0.8,0.2,1.8,0.4,2.4,1c1,1.1,1.8,2.3,2.7,3.6
		c1.7,2.5,4.3,2.9,6.9,3.8c5.1,1.8,7.8,5.8,8.6,11.1c0,0.3,0,0.5,0,0.8c0.1,0.6,0.3,1.2,0.6,2.4c1.8-0.8,3.9-1.2,5.2-2.4
		c1.3-1.2,2-3.2,3.2-5.2c1.5,1.9,3.4,4.2,5.2,6.6c2.5,3.4,4.9,6.8,7.2,10.3c0.6,0.8,0.8,2,0.9,3c0.3,2,0.2,3.9,1.5,5.8
		c0.9,1.3,0.2,3.6,0.2,5.5c0.3-0.2,0.6-0.3,0.9-0.5c2.1,1.3,4.3,2.6,6.4,4.1c3.2,2.3,3.9,6.3,6.1,9.1c2.6,3.4,6.4,6.4,11.3,6.5
		c0.6,0,1.2,0.4,1.7,0.4c1.3-0.1,1.9-0.8,1.2-2.1c-0.6-1-1.2-2.4-2.2-2.9c-2.4-1.1-2.3-3.5-3.2-5.4c-0.6-1.3-1.4-2.7-2.5-3.6
		c-2.3-1.9-5.2-2.6-8.1-3.1c-1.4-0.2-3.2-0.6-3.5-3.2c-0.1-1.4-2.3-3.3-3.9-3.8c-2.5-0.7-2.8-2.4-3-4.3c-0.3-3.3-0.1-6.7-0.6-10
		c-0.2-1.4,0-2.2,1.1-2.3c0.6-0.1,1.3,0.9,1.9,1.5c0.2,0.2,0.2,0.6,0.3,1c4-1.3,6.9-0.2,9.3,3.2c0.6,0.8,2.5,0.7,3.9,1
		c1.3,0.3,2.6,0.5,3.6,0.6c0.4,2.1,0.8,3.9,1.1,5.8c0.3,0,0.7,0.1,1,0.1c1.1-2.6,2.2-5.3,3.4-7.9c0.2-0.5,0.8-0.8,1.2-1.1
		c4.4-2.9,5.6-8.2,3.4-13c-2-4.2-4.3-8-8.5-10.2c-1.8-1-4.3-1.2-5.7-2.6c-2.1-2-5.7-2.8-6-6.5c-0.1-0.8,0.2-1.6,0.4-2.5
		c0.1-0.5,0.3-1,0.3-1.5c-0.2-3.3,3.5-7.1,6.7-7c0.7,0,1.3-0.3,2.2-0.6c0.3,2.1,1,3.8,4.1,3.1c-2.3-1.7-2.6-3,0.1-4.1
		c1.2-0.5,2.5-1.4,3.3-2.4c1.1-1.3,1.7-3,2.6-4.7c1.4,0.2,7.2-2.3,7.9-4.1c1.8-5.5,5.9-10.8,2.5-16.7c0.5-1.2,1.5-2.4,1.3-3.3
		c-0.6-2.6,1.9-5.3-0.5-7.7c-0.4-0.4,0.5-1.9,0.2-2.3c-1-1.2-2.1-3-4.3-1.4c-0.3,0.2-1.1-0.3-1.5-0.5c1-1.1,1.9-2.2,3-3.5
		c-1.7-0.9-3.2-1.7-5-2.7c1.1-0.3,2-0.5,2.4-0.6c-2.9-2.7-6-5.6-9.1-8.4c-0.4-0.4-1.1-0.4-1.7-0.5c-3.3-0.4-4.6-2.6-3.6-5.7
		c0.5-1.6,1-3.2,1.9-4.5c0.5-0.8,1.7-1.2,2.8-1.9c-0.1-2.1-1.2-2.9-3.6-1.9c-0.2,0.1-0.5,0.4-0.7,0.3c-2.5-0.8-4.7-1.4-4.6,2.6
		c0,0.1-2,0.6-2.8,0.3c-2.2-0.9-4.2-2.1-6.2-3.3c-0.6-0.4-0.9-1.6-1.1-2.4c0-0.4,0.8-0.9,1.3-1.2c0.4-0.3,1.2-0.5,1.2-0.8
		c0.5-2.2,1.1-4.4,1.3-6.6c0.2-1.6,0.7-2.9,2.2-2.6c1.2,0.2,3,0.5,2.6,2.8c-0.3,1.5-0.2,3.1,1.6,4c0.4,0.2,0.4,1.3,0.9,2.8
		c1.1-5.5,3.8-8,9.1-6.4c0.4,1.3,1,3,1.5,4.6c0.6,1.6,1.1,2.6,3.4,1.9c1.3-0.4,3.2,1.4,4.8,2.3c0,0-0.5,1.1-0.5,0.9
		c1.4,2.2,2.7,4,3.5,5.9c1.4,3.1,1.9,3.4,4.3,1.3c0.1-0.1,0.1-0.1,0.2-0.1c1.1-0.7,3-1.4,3-2.2c0.1-1.4-0.7-3-1.6-4.2
		c-3.3-4.4-7.5-7.9-12.5-10.4c-0.9-0.5-1.9-2.6-1.5-3.4c1.2-2.8,1.9-5.2-0.6-7.7c-0.6-0.6-0.3-2.3-0.2-3.4c0.2-1.4,0.7-2.8,1.2-4.5
		c0.3,0.1,1,0.3,1.7,0.6c2.2,1.1,4,0,3.9-2.6c-0.2-3.9-0.3-7.8-0.9-11.6c-0.4-2.3-1.9-4.3-2.6-6.5c-1.4-4.2-3.8-7.5-7.3-10.3
		c-1.7-1.4-2.7-3.6-4.1-5.4c-1-1.3-2.1-2.5-3.1-3.7c2.6,1.9,5.6,3.5,7.9,5.7c5.6,5.6,11,11.5,16.3,17.2c0.7-0.3,1.5-0.8,2.6-1.4
		c-4.3-1.5-6.9-4.6-9.3-8c-1.2-1.6-0.3-1.8,1.3-1.9c-6.7-5.4-13.3-10.7-19.9-16c-0.3,0.2-0.5,0.4-0.8,0.6c0.3,0.6,0.5,1.2,0.8,1.8
		c0.4,0.7,0.8,1.4,1.3,2c-2.4-1.4-4.8-2.9-7.3-4.2c-3.5-1.8-3.7-1.6-4.6,1.2c-1.2,0-2.2,0-3.1,0c-0.2,0-0.4-0.1-0.5-0.2
		c-1.5-3-4.4-2.4-6.7-2.4c-0.7-3.2-1.2-6.1-2-9s-2-5.6-3.2-9c2.3-0.3,4.9-0.7,7.5-1c0.4-0.1,1,0.2,1.2,0c2.9-2.2,5.3-1.1,7.8,0.8
		c0.7,0.5,2.3-0.2,3.1-0.3c-2.5-2.2-5-4.4-7.9-6.9c3.8-0.7,5.8,2.1,8.5,2.8c0-0.3,0-0.7-0.1-1.6c4.6,3.1,8.6,6.3,11.8,10.5
		c2.1,2.9,5,5.3,7.8,7.6c6.2,4.9,12.5,9.6,18.8,14.4c0.4,0.3,0.9,0.5,1.8,0.9c-0.6-1.3-0.8-2.1-1.3-2.8c-1.8-2.2-4.3-4.1-5.6-6.6
		c-1.8-3.3-5.1-4.9-7.4-7.6c-1.7-2-4.5-3.2-6.8-4.7c-3-1.9-6-3.8-8.9-5.7c0.1-0.2,0.2-0.5,0.3-0.7c0.6,0.1,1.2,0.2,1.7,0.4
		c11,6.1,21.7,12.6,31.5,20.7c8.3,6.9,16.7,13.7,24.4,21.2c6.1,5.8,11.6,12.3,16.8,19c6.8,8.8,13.4,17.8,19.2,27.2
		c7.8,12.7,14.2,26.3,19.3,40.4c7.4,20.4,12.1,41.5,14,63.1c1.8,21,0.7,41.8-2.9,62.5c-2.8,16-7.1,31.6-13.3,46.6
		c-4.5,10.9-9.7,21.5-15.6,31.7c-2.5,4.3-5.1,8.6-7.9,12.7c-5.5,8.2-11.4,16.3-17.8,23.8c-5.8,6.9-12.3,13.2-18.9,19.3
		c-6.1,5.7-12.4,11.2-19.1,16c-9.3,6.6-18.8,13-28.7,18.6c-9.1,5.1-18.8,9.4-28.5,13.3c-23.7,9.5-48.3,15-73.8,16.1
		c-11.5,0.5-23.1,0.6-34.6-0.3c-11-0.9-22-2.9-32.8-5.2c-18.8-4-36.8-10.7-54-19.2c-11.7-5.7-22.6-12.7-33.2-20.3
		c-10.9-7.8-21.3-16.2-30.5-25.9c-8.6-9.1-16.5-18.8-24.1-28.7c-10.7-13.8-18.9-29.2-25.8-45.2c-10.7-25-17.1-51.1-19.1-78.3
		c-1.5-20.8-0.4-41.5,3.5-62c3-15.5,7.5-30.6,13.4-45.3c5.8-14.4,12.9-28.1,21.2-41c5.6-8.8,12-17.1,18.8-25
		c6.9-8,14.3-15.7,22-22.9c10.3-9.6,21.6-17.9,33.6-25.4c12.8-8,26.3-14.7,40.4-20.3c0.2,0.7,0.4,1.3,0.7,2c-1.5,1-3.1,2.4-4.9,2.9
		c-4.2,1.2-7.4,4.1-10.9,6.4c-1.1,0.7-1.7,2.2-3,3.9c2.1-0.3,3.4-0.4,5.4-0.7c-4.7,2.6-8.6,4.7-12.8,7.1c3.5,2.7,6.5,1,9.5,0.2l0,0
		c-1.6,0.9-3.2,2-4.9,2.6c-2,0.7-4.1,1-6.2,1.5c-0.1,0.3-0.2,0.6-0.3,0.9c0.3,0.3,0.7,0.6,1.2,1.1c-1.2,0.4-2.5,0.9-3.8,1.4
		c1,0.8,1,0.8,6.2-0.2c-1.7,0.8-2.7,1.4-3.8,1.7c-1.1,0.3-2.4,0.8-3.3,0.5c-1.1-0.4-1.9-1.5-2.8-2.3c-0.3,2-0.6,3.7-0.8,5.4
		c1.3,0,2.6,0,3.2,0c1.2,1.8,2.1,3.2,3.1,4.7c2.2-1.4,4-2.6,6.3-4.2c-0.9,1.2-1.3,1.9-1.8,2.5c-2.2,2.3-2.2,2.3,1.2,3.6
		c-1,2.7-1.4,6-3.3,7.9c-1.3,1.3-4,3-7.7,1.6c6.8-1,7.6-4.7,5.9-9.6c-0.2,0.2-0.4,0.3-0.5,0.5c-1.6-1.2-3.2-2.3-4.8-3.5
		c-1.2-1-2.4-2-3.5-3c-0.2,0.2-0.4,0.3-0.6,0.5c0-0.6,0.1-1.2,0-1.8c-0.2-1.1-0.5-2-2-1.4c-1.7,0.8-3.5,1.5-5.2,2.3
		c-0.2,0.1-0.4,0.6-0.4,0.9c0.2,2.1,0.4,4.1-1.2,5.9c-0.2,0.2,0.1,0.9,0.3,1.3c0.6,1,1.3,1.9,1.9,2.9c1.8-0.1,3.8-0.2,6-0.3
		c0,0.8,0,1.5,0,2.2c-0.2,0.1-0.3,0.3-0.4,0.3c-6.1-0.4-11.7,1.3-17,4.1c-0.5,0.2-1.1,1.1-1,1.4c0.3,0.7,0.9,1.2,1.5,2
		c-0.5,0.8-1.2,1.9-2,3.2c-0.4-0.4-0.9-0.9-1.4-1.5c-3.3,3-6.6,6-9.8,9c-0.1-0.1-0.2-0.2-0.3-0.3c0.2-0.4,0.4-0.8,0.6-1.1
		c-0.1-0.1-0.3-0.3-0.4-0.4c-0.4,0.4-0.8,0.8-1.2,1.2c-2.8,3-5.7,6.1-8.5,9.2c-0.4,0.4-0.4,1.1-0.5,1.7c-0.4,2.7-2.5,3.7-5.2,2.4
		c0.9-1,1.8-2,2.7-3c-0.1-0.3-0.3-0.6-0.4-0.8c-1.7,0.7-3.3,1.4-4.8,2c-0.1,0.5-0.1,0.6-0.1,0.7c0.7,0.9,2,5.4,1.6,6.3
		c-0.2,0.5-0.6,1.2-1,1.2c-3.2,0.3-3.6,3.3-5.1,5.1c-0.8,1-1.9,2.3-0.2,3.7c0.2,0.2-0.4,1.7-0.9,2c-0.8,0.5-2,0.3-2.9,0.7
		c-1,0.4-1.9,1.2-3.3,2.1c1,0.4,1.2,0.5,1.4,0.5c0.7,0.1,1.5,0.2,2.2,0.3c-0.8,0.7-1.4,1.6-2.3,2c-0.7,0.3-1.7,0-3.1-0.1
		c-0.2-1.1-0.4-2.7-0.6-4.3c-1.1,0-2.3,0-3.4,0c0-0.2-0.1-0.4-0.1-0.7c0.9-0.3,1.9-0.5,2.7-1c3-1.7,6.2-3.4,8.9-5.5
		c1.2-1,1.7-2.9,2.3-4.5c0.1-0.3-0.9-1.4-1.3-1.4c-3.9,0.5-8,0.4-10.8,4.1c-0.8,1.1-2.6,1.4-4.2,2.1c0.4-0.8,0.7-1.5,1-2.2
		c-0.1-0.1-0.2-0.2-0.3-0.3c-0.9,0.7-1.9,1.4-2.7,2.2c-1.9,2.2-3.9,4.3-5.6,6.6c-2.4,3.3-5.1,6.6-6.8,10.3
		c-3.2,6.5-5.7,13.3-8.6,19.9c-2.2,5.2-4.4,10.5-6.9,15.6c-2.4,4.8-2,10-2.6,15c0,0.1,0.2,0.3,0.7,0.9c1.5-3,2.9-5.6,4.4-8.7
		c0.9,3.6,1.6,6.8,2.6,10.6c0.7-1.1,1.1-1.7,1.3-2.4c0.2-0.4,0-1.1,0.3-1.2c3.7-2.4,2-6.4,2.9-9.7c0.8-2.6,1.4-5.2,2.3-7.8
		c0.7-1.8,0.3-2.7-1.6-2.9c-0.1-4.5,1.5-8.3,3.5-12.1c1.2-2.4,2-5,2.6-7.6c0.7-2.8,2.4-5.1,5.5-6.2c-1.6,3.6-2.7,7-4.5,10.1
		c-2.1,3.4-1.4,7-1.5,10.6c1,0.1,2,0.2,3.3,0.4c2.7-3.1,4.8-7.6,10-8.1c-1,1.7-1.7,3.6-3,4.9c-1.2,1.3-3.2,1.9-4.5,3.2
		c-1.7,1.7-3.4,3.5-1.3,6.3c0.7,0.9,0.1,2.9,0.1,4.6c-3.1-1.1-3.8-0.8-4,1.9c-0.2,1.9,0.3,3.8-0.2,5.6c-0.5,2.3-1.5,4.6-2.7,6.6
		c-0.4,0.7-2.5,0.4-3,1.1c-1.4,1.9-2.4,4-3.5,6.1c-0.1,0.2-0.3,0.4-0.5,0.8c-2-1.7-2.5,0.3-3.6,1.2c-0.5,0.4-1.5,0.3-2.2,0.4
		c0-0.7-1.6-2,0.7-1.9c0.1,0,0.4-0.7,0.4-1.1c-0.2-2.1-0.4-4.3-0.6-6.1c-2.2,4.7-2.8,4.7-1.8,10c0.4,2.2,0.3,4-1.6,5.8
		c-2.4,2.4-3,5.9-3.4,9.4C1362.9,226.3,1362,227.6,1361.5,228.9c-0.2-0.8-0.4-1.6-0.5-2.4c-0.1-0.9,0.1-1.9-0.1-2.7
		c-1.1-3.2-2.7-6.2-1.7-9.7c0.2-0.7,0-1.5-0.1-2.3c-0.3,0-0.7,0-1,0c-0.3,2.8-0.7,5.6-0.8,8.5c-0.1,1.8,1.1,3.9,0.5,5.2
		c-1.6,3.5-0.7,7-1.2,10.8C1358.3,233.5,1359.9,231.2,1361.5,228.9z M1751.4,238.2c1.4,1.2,2.8,2.5,4.1,3.7c0.2-0.2,0.4-0.4,0.6-0.6
		c-1.1-1.3-2.2-2.6-3.5-4C1752.4,237.5,1751.9,237.8,1751.4,238.2c-0.2-1.4-0.8-2-2.3-1.1c-0.5,0.3-1.4,0.6-1.8,0.4
		c-1.6-0.8-2.3-4.6-1.9-6.4c0.3-1.7,0-3.6-0.5-5.3c-0.3-1.1-1.3-2.1-1.8-2.9c-1.1,0.1-2.4,0.2-3.8,0.2c-1.6,3.2,2.4,6.5-0.1,9.9
		c2.3,0.8,1.4,5.3,5.1,4.5c0.2,0.7,0.3,1.7,0.8,2.4c0.2,0.3,1.7,0.3,1.9,0c1.4-2.4,2.5-0.8,3.7,0.1c0.1,0.1,0.3-0.1,0.6-0.1
		c-0.4-0.6-0.8-1.1-1.3-1.7C1750.5,238.2,1750.9,238.2,1751.4,238.2z M1749.1,408.7c3.7,1.3,4.7,0.8,7.3-1.9c2.9-3,5.5-6.4,9.8-7.9
		c1.5-0.6,2.6-2.6,3.8-4c1.9-2.1,3.6-4.4,5.5-6.4c1.4-1.4,3.1-2.5,4.5-3.9c2.8-3,6-5.2,10.4-5.4c0.4,1.8,0.7,3.4,1.1,5.2
		c1-1.7,2-3.3,2.9-4.8c0.4,1,0.9,1.9,1,2.8c0.1,1.4-0.1,2.8-0.1,4.2c0,0.6,0.1,1.3,0.1,2.1c3.7-1.6,5.7-4.6,7.3-7.5
		c3.4-6.3,6.7-12.7,9.3-19.4c4.2-10.6,9.7-21,7.3-33c-0.6-2.8,0-6.2-3.3-7.9c-0.4-0.2-0.5-1.2-0.6-1.8c-0.4-2.9-0.5-5.8-1-8.7
		c-0.1-0.8-1-1.5-1.5-2.2c-0.1,0.1-0.2,0.2-0.3,0.3c-0.7-2.6-1.4-5.2-2.1-7.9c-0.2,0-0.4,0.1-0.7,0.1c-0.2,1.8-0.3,3.6-0.5,5.4
		c-0.3,4.5-0.4,9-0.8,13.5c-0.2,1.6-1.1,3.2-1.6,4.6c-2.3-0.7-4.2-1.2-5.8-1.9c-1.4-0.7-3.1-1.3-2.2-3.7c0.7-1.8,1-3.8,1.5-5.8
		c0.2-0.8,0.3-1.6,0.4-2.2c-1.7,0.7-3.1,1.5-4.6,1.8c-1.7,0.3-3.5,0.1-5.2,0.1c0,0.2,0,0.4,0,0.6c0.6,0.2,1.1,0.3,2,0.6
		c-0.6,0.8-0.9,1.9-1.5,2.1c-2.3,0.9-2.5,3.3-3.7,4.8c-2.2,2.7,0.1,7.4-4.1,9.2c-0.1,0-0.2,0.1,0,0c-0.9-0.8-1.6-2.1-2.5-2.2
		c-0.8-0.1-1.8,1-2.6,1.7c-0.6,0.6-1.2,1.4-1.6,2.1c-0.8,1.6-2.4,3.6-2,5c0.7,2.3,0.1,2.8-1.8,2.8c0,1.4,0,2.5,0,4.1
		c-0.8-1.1-1.3-1.7-1.7-2.3c-0.3,0-0.6,0-0.8,0.1c-0.3,2.2-0.3,4.4-0.8,6.6c-1.3,5.3-5.5,8.2-9.4,11.5c-2.5,2.1-4.9,4.3-7.1,6.6
		c-1.3,1.3-1.8,3.3-3.2,4.6c-0.7,0.7-1.9,0.5-1.7,2.1c0.2,1.3,0.1,2.8-0.3,4.1c-0.6,2.1-0.5,3.9,0.8,5.7c0.4,0.6,0.5,1.4,0.8,2.7
		c-1.1-0.7-1.5-1-2-1.3c0.2,1,0.2,1.8,0.4,2.5c0.4,1.8,0.7,3.6,1.4,5.2c1.6,3.8,2.2,7.8,1.7,11.9
		C1751,405.1,1749.9,406.8,1749.1,408.7z M1748.6,285.2c1.7-2.4-1.4-2.6-1.7-3.9c-0.3-1.3-0.3-2.7-0.4-4.1c0.7-0.3,1.4-0.5,2.3-0.9
		c-0.5-0.7-1-1.3-1.3-1.7c0.9-0.8,1.8-1.5,2.6-2.2c-2.5-0.6-4.6-0.7-6.2-2.8c-1.1-1.5-3.4-0.4-3.4,1.6c0,2.9-1,5.2-3,7.2
		c-0.8,0.8-1.2,2.1-1.7,3.1c-1.1,2.2-0.7,5.2-3.5,6.4c-1.7,0.8-2.1,2-2,3.6c0.2,2.8-1.7,2.9-3.7,3c-0.6,0-1.1-0.2-1.7-0.3
		c-1.7,3.6-0.6,7,2.4,10.4c0.4,0.4,1.2,0.6,2,0.9c1,5.3,1,5.3,6.4,3.4c0.2,0.5,0.4,1,0.6,1.4c1.5-0.9,2.6-2.2,4-2.5
		c1.3-0.3,2.8,0.5,4.5,0.9c0.8-0.5,2.1-1.4,3.5-2.4c-0.1-0.3-0.6-0.8-0.5-1.2c0.8-3.1-1.6-6.7,1.3-9.6c0.4-0.4-0.1-1.4,0-2.2
		c0.2-1.7,0.5-3.4,0.9-5c0.1-0.4,1.2-0.5,1.8-0.7c-0.6-0.5-1.3-1.1-1.9-1.6C1749.9,285.8,1749.4,285.6,1748.6,285.2z M1536.1,413.9
		c0.7,0.1,2.2,0.4,1.3-1.3c-1.7-3.4-2.9-7.3-6.6-9.3c-2,1.4,1.5,5.3-2.4,5.5c0.1,1.1,0.7,3,0.3,3.3c-2.3,1.6-3.1,4.8-6.4,5.3
		c-2.3,0.4-4.1,4-2.6,5.6c3.2,3.4,4.3,6.9,2.5,11.3c-1,2.5,1.5,3.7,2.6,5.3c1.1,1.6,2.5,3.1,4,4.1c1.7,1.2,3.5,0.3,5.4-0.4
		c2.6-0.9,3-2.2,2.9-4.5c-0.1-5,0.3-9.9,0.1-14.9C1537.3,420.6,1536.5,417.3,1536.1,413.9z M1674.2,296.7c0.9,1.1,1.7,2.3,2.7,3
		c2.6,1.6,5.5,2.8,8.2,4.3c1.3,0.7,2.4,1.8,3.5,2.8c1.2,1,2.5,1.9,3.6,3c0.6,0.6,1,1.5,1.7,2c1.7,1.5,3.6,2.8,5.2,4.4
		c1,1,1.5,2.7,2.6,3.4c3,1.9,6.2,3.7,9.5,5.1c1.8,0.8,3.6,2.4,5.8,1.1c0.8-0.5,1.6-1.1,2.4-1.7c-0.3-2.7-0.7-5.5-1.1-8.6
		c-0.6-0.3-1.8-1.6-2.4-1.3c-2.1,0.9-2.3-0.9-3.1-1.8c-0.5-0.5-0.7-1.1-1.1-1.8c-2,0.9-3.6,1.3-3.2-1.8c0.2-1.6,0-2.8-2.4-1.9
		c-0.9,0.3-2.4-0.8-3.5-1.4c-0.8-0.4-1.4-1.1-2.1-1.4c-2.2-0.9-4.5-1.7-6.7-2.6c-1.5-0.6-3-1.5-4.5-2.2c-1.3-0.6-2.6-1.2-3.8-1.9
		c-1.1-0.6-2.1-1.8-3.1-1.7C1679.9,295.7,1677.4,296.2,1674.2,296.7z M1805.2,294.1c0.2,0.2,0.4,0.4,0.5,0.6
		c0.6,1.2,1.6,1.8,2.7,0.9c1-0.8,3.2-0.7,2.3-3.3c-0.4-1.2,1-3,1.9-4.4c0.1-0.2,1.9,0.3,2.6,0.9c0.9,0.9,1.5,2.1,2.2,3.1
		c1.2-0.3,2.4-0.6,3.6-1c-0.3-0.7-0.5-1.6-1-2c-2.3-2.2-4.9-4.3-2.9-8.2c-1.2-0.2-2.1-0.4-3.1-0.6c-0.1-2.2-1.5-3.1-3.5-3.2
		c-4-0.3-8-0.6-12-0.8c-1.2,2.8-2.3,5.5-3.4,8.1c-4.1-0.5-2.7-4.3-3.8-6.1c-4.6-1.9-5,2.2-6.8,3.8c1.3,0.6,2.6,1.2,4.1,1.9
		c0.8-0.4,1.7-1,2.7-1.5c0.2,0.2,0.4,0.4,0.5,0.6c-1.3,1-2.6,2.1-3.9,3.2c0.6,0.4,1.3,0.8,1.8,1.4c0.4,0.4,0.6,1,0.8,1.5
		c0.4-0.6,0.7-1.2,1.1-1.9c1.4,0.1,2.9,0.6,4.4,0.4c5.4-0.5,7.6,2.2,5.9,7.4c-0.2,0.7-0.2,1.4-0.4,2.5
		C1802.9,295.9,1804,295,1805.2,294.1z M1738.4,161.9c1,1.9,1.9,3.9,2.9,5.8c0.1-0.1,0.3-0.1,0.4-0.2c0-0.4,0-0.9,0.1-1.7
		c0.7,0.8,1.2,1.3,1.6,1.8c-1.1-3.9-0.1-8.7-5.3-10.4c-0.1,0-0.2-0.9-0.1-1.1c0.7-0.7,1.5-1.4,2.3-2c1.3-1,2.7-1.9,4.5-3.1
		c1.1,1.3,2.5,2.9,3.8,4.5c0.3-0.2,0.7-0.3,1-0.5c-0.4-1.9-0.8-3.7-1.2-5.5c3.5,2,3.6-2,5.1-3.7c0.5,0.7,0.9,1.3,1.2,1.9
		c0.2-0.1,0.5-0.1,0.7-0.2c-0.2-1.1-0.1-2.4-0.7-3.3c-2.1-3.9-5.3-7.3-6-11.9c-0.5-3.4-2.8-5.5-5.5-7.3c-1.1-0.7-2.2-1.3-3.3-1.9
		c-0.2,0.3-0.5,0.5-0.7,0.8c0.5,0.9,0.8,1.9,1.4,2.7c2.8,3.4,4.8,7.1,5.1,11.6c0.1,2-0.7,3.2-2.8,3.8c0.3,1.6,0.7,3.3,1,4.9
		c-1.8,0.7-3.7,1.3-5.5,2.2c-0.5,0.2-0.8,1.1-0.9,1.7c-0.6,2.5-1,5-1.5,7.6c-0.2,0.9-0.6,2-0.3,2.7
		C1736.2,161.6,1737.5,161.6,1738.4,161.9z M1766.9,299.6c0.2,0.1,0.4,0.3,0.7,0.4c-0.8-0.4-1.9-0.7-2.4-1.3
		c-1.1-1.3-1.8-2.9-2.8-4.4c0.7-1.3,1.6-3,2.5-4.7c-0.3-0.2-0.6-0.4-0.8-0.5c-1.4,1.2-2.9,2.3-4.8,3.9c-0.6-0.6-1.7-1.4-2.2-2.5
		c-0.3-0.7,0.1-2.4,0.7-2.7c2.2-1.3,4.6-2.4,7.1-3.1c2.9-0.8,4.3-2.3,4.1-6.3c-2.1,5.5-6.5,5.3-10.7,5.7c-0.1,0.5-0.1,1.1-0.4,1.3
		c-3.2,2.1-1.2,5.7-2.4,8.5c-0.8,1.9-0.4,4.4-0.2,6.7c0,0.6,0.8,1.3,1.3,1.9c0.6,0.7,1.6,1.2,1.7,2c0.3,1.4,0.1,2.8,0.1,4.3
		c2.4-0.7,2.5-0.7,2.2-2.7c-0.3-2.1-0.6-4.3-0.8-6.4c0-0.6,0.5-1.3,0.9-2.3c1.2,2.5,2.2,4.4,3,6
		C1764.6,302.1,1765.8,300.9,1766.9,299.6z M1719.4,329.1c1-0.2,1.9-0.6,2.1-0.4c2,2.3,5,0.9,6.4,0.3c4.3-1.9,9.2-0.7,13.1-2.9
		c1.9-1,3.6-1,5.4-0.7c-0.2-1.3-0.4-2.3-0.5-3.3c-1.4,0.3-3.7,1.2-4.1,0.7c-2-2.6-4.5-1-6.5-1.2c-0.8,1.1-1.6,1.9-2.6,2.4
		c-1.7,0.9-3.2,0.8-5.2,0c-1.7-0.7-4.4,0.4-6.3,1.3C1720.3,325.7,1720.1,327.5,1719.4,329.1z M1440.7,97.1c-1.4-0.3-3-0.1-3.8-0.9
		c-1.4-1.3-0.5-3,0.2-4.6c2.8-6,7.3-10.7,12.2-15c1.2-1.1,2.5-2.1,3.7-3.2c-0.2-0.2-0.4-0.4-0.5-0.7c-3.5,2.8-7,5.7-10.5,8.5
		c-6.3,5-8.8,12.4-12,19.3c-0.1,0.3,0.1,0.7,0.2,1.4c1.2-0.8,2.2-1.5,3.1-2.1C1435.2,101.4,1440,99.4,1440.7,97.1z M1615.8,297.6
		c0.3,1.5,0.8,2.4,0.6,3.1c-1.3,3.9,1.1,6.8,2.5,9.9c0.9,1.9,2.7,1.8,4.3,0.7c1.7-1.2,2.8-3,1.9-4.8
		C1623.2,302.5,1619.8,300.2,1615.8,297.6z M1739.8,110.5c-4.4,1.5-6.6-3.9-10.6-4c1.9,2.8,3.7,5.5,5.7,8.3
		c-0.8,0.1-1.3,0.2-1.6,0.3c0.5,1.4,0.7,2.8,1.4,3.9c0.8,1.2,2.2,2,3.3,3c0.3-0.5,0.7-1.2,1.1-1.8c-1.2-0.6-2.4-1.2-3.3-1.7
		c2-3.4,4.1,0.2,6.2-0.3c-0.1-1.4-1.7-3,0.9-3.5c0,0,0-1.5-0.3-1.9C1741.8,111.8,1740.8,111.3,1739.8,110.5z M1763.4,250.2
		c-1,2.6-1.9,4.7-2.8,6.9c-0.8-0.6-1.4-1-2-1.5c-0.4,0.6-0.7,1.3-1.1,1.9c-0.2,0.3-0.3,0.8-0.6,0.9c-2.3,1.2-0.4,2.9-0.4,4.3
		c0.1-1.1,0.3-2.1,0.4-2.8c1-0.1,2,0,2.4-0.4c1.6-1.6,2.1-0.2,2.4,0.9c0.9,3.6,1.7,4,5.4,2.5c-0.4-0.7-0.9-1.4-1.1-2.2
		c-0.2-0.8,0-1.6,0-2.4c0.2,0,0.3,0,0.5,0c0.2,0.3,0.5,0.7,0.7,1.1c2.7-3.1-1.9-4.7-1.6-7.3C1765.6,251.6,1764.1,250.8,1763.4,250.2
		z M1734.1,210.8c-0.8-4.1-1.4-7.8-2.1-11.5c-0.2-0.9-0.9-1.7-1.3-2.5c-0.4,0.1-0.9,0.2-1.3,0.3c-0.3,2.1-0.8,4.3-0.7,6.4
		C1728.8,206.7,1731.1,208.7,1734.1,210.8z M1708.2,230.3c-0.4-3.1-0.9-3.7-3.2-2.9c-1,0.3-1.9,0.9-2.6,1.6c-1.2,1.1-1.2,4.1,0,5
		c1.6,1.1,3.2,0.8,4.4-0.7C1707.5,232.4,1707.8,231.3,1708.2,230.3z M1770.6,319.8c0.2,0.2,0.5,0.4,0.7,0.6c2.3-3.1,4.7-6.2,7.5-9.9
		C1773.7,312.2,1772.2,316,1770.6,319.8z M1744,157c0.9-0.7,1.5-1.2,2.1-1.7c-0.7-0.7-1.3-1.4-1.9-2.1c-1.3,1.5-2.2,2.6-3.2,3.7
		c1.1,1,2,1.8,3.2,2.9C1744.1,158.3,1744,157.4,1744,157z M1372.9,255.3c-2.6,3.4-0.5,6,0,8.7C1375,261.2,1373.5,258.5,1372.9,255.3
		z M1759.3,247.1c0.6-1,1.4-1.7,1.6-2.5c0.8-2.9-2.2-4.8-4.1-2.7c3.3,2.9,3.3,3,0.8,3.9C1758.3,246.4,1758.8,246.8,1759.3,247.1z
		 M1356.6,224.2c-0.3-0.1-0.6-0.1-0.9-0.2c-0.6,4.2-1.3,8.5-1.9,12.7c0.3,0,0.5,0.1,0.8,0.1C1355.2,232.6,1355.9,228.4,1356.6,224.2
		z M1429.1,251.6c-0.1-0.1-0.2-0.2-0.4-0.2c-1.2,1-2.4,2-3.5,3.1c-0.5,0.5-0.6,1.3-0.8,1.9c1-0.2,2.4-0.1,2.8-0.7
		C1428.1,254.6,1428.5,253,1429.1,251.6z M1768.8,314.1c-1.4,0.5-3.1,1.1-4.8,1.9c-1.3,0.6-3,0.9-3,3
		C1766.9,317.2,1768.3,316.2,1768.8,314.1z M1779.5,291.3c2.1-0.5,4-0.9,5.9-1.4c-0.6-0.8-1.6-1.4-2.5-1.4
		C1781,288.7,1779.6,290,1779.5,291.3z M1821.8,271.4c-0.2,3-1.7,5.1-4.4,6.7c0.9,0.3,1.8,0.7,2.3,0.3
		C1822,276.6,1821.6,274,1821.8,271.4z M1716.9,310.4c-0.5,0.5-1.1,1.2-1.8,1.9c1.9,0.9,3.4,1.7,4.9,2.4c0.1-0.2,0.2-0.4,0.4-0.6
		C1719.3,313.1,1718.3,312,1716.9,310.4z M1774.8,274.7c0.1,0.9,0.1,1.8,0.2,2.9c0.5-0.3,0.9-0.4,1.3-0.7c-0.4,1.1-0.7,1.9-1,2.8
		c0.4,0.1,0.8,0.3,1.2,0.4c0.5-1.6,1.1-3.2,1.5-4.5C1776.8,275.3,1775.9,275,1774.8,274.7z M1751,323.9c2.1-0.8,3.9-1.5,6.2-2.4
		C1754.4,320.3,1751.4,321.5,1751,323.9z M1756,248.3c-0.1-0.1-0.3-0.2-0.4-0.3c-0.4,1.7-0.8,3.3-1.2,5.2c1,0.3,1.8,0.6,2.7,0.8
		C1756.7,252.1,1756.3,250.2,1756,248.3z M1752.6,251.1c1-2.1,1.6-3.4,2.4-5.1c-1.5,0.1-2.5,0.1-3.5,0.2
		C1751.8,247.6,1752.1,248.9,1752.6,251.1z M1748.1,245.8c0.6-3.8-0.4-4.8-3.3-4.1C1745.8,242.9,1746.8,244.1,1748.1,245.8z
		 M1403,262.7c0.1,0.4,0.2,0.8,0.3,1.2c1.9-0.6,3.9-1.2,5.8-1.8c-0.1-0.4-0.2-0.7-0.3-1.1C1406.9,261.6,1405,262.1,1403,262.7z
		 M1759.3,321.8c0,0.3,0.1,0.5,0.1,0.8c1.2,0.2,2.3,0.4,3.5,0.5c0.4,0,0.8-0.4,1.2-0.7c-0.3-0.4-0.6-1.1-0.8-1.1
		C1762,321.4,1760.6,321.6,1759.3,321.8z M1741.2,261.7c2.9-2.5,3.3-3.6,2.3-5.4C1742.7,258.1,1741.9,259.9,1741.2,261.7z"/>
	<path d="M1466.4,214.9c-1.6-1-3.3-2.2-5-3.3c-0.5-0.3-1.1-0.5-1.6-0.9c-1.4-1-3.1-1.8-4.1-3.1c-1.3-1.7-1.7-4.2-4.4-4.5
		c0.2-2.1,0.2-4.3,0.8-6.3c0.5-1.7,1.4-3.7,2.7-4.5c2.6-1.5,2.8-5.9,7-5.2c0.7,0.1,1.7-1,3.1-1.9c0.9,2.3,1.7,4.4,2.5,6.4
		c-1.1,0.4-2.6,0.7-3.8,1.4c-2,1.1-0.9,2.4,0.3,3.8c-1.1,0.6-2.1,1.1-3.4,1.8c3.8,0.8,5.4,5.6,9.1,4.1c1.5,2.2,2.7,4,3.9,5.8
		c0.1,0.1,0.3,0.2,0.4,0.4c0.4,2.9,1.4,5.2,5.5,4.7c-0.9,0.8-1.3,1.2-2,1.8c2.8,0.2,3.7,1.9,4.4,4c0.4,1.4,1.3,2.6,2.1,3.8
		c0.7,1.1,0.7,1.6-0.7,2c-1.5,0.4-2.9,1-4.2,1.8c-2.1,1.3-4.2,1.6-6.5,0.6c-0.8-0.3-1.6-0.4-2.5-0.4c-1-0.1-2.5,0.4-2.8,0
		c-0.9-1.3-1.5-2.9-1.9-4.5c-0.3-1.3,0.1-2.7,0-4C1465,216.1,1465,216,1466.4,214.9z"/>
	<path d="M1407.7,221c-0.6-2.9,1.3-7.5,3.6-8.7c0.1,0.5,1.1,0.8,4.5,1c-0.3,0.5-0.5,0.9-0.7,1.3c-0.2,0.5-0.5,0.9-0.5,0.9
		c1,1.1,1.9,1.9,2.8,2.9c1.9-2.1,4-4.3,6-6.4c-0.1-0.3-0.3-0.6-0.4-0.9c-2.1,2.8-4.5,2.5-7.1,1.1c3.7-3.6,7.4-7.3,11.1-10.9
		c0.2,0.2,0.4,0.3,0.6,0.5c-0.8,1.4-1.5,2.7-2.4,4.3c0.3,0.1,0.8,0.3,1.4,0.5c-0.6,1.7-1.2,3.3-2,5.5c0.8,0.2,2,0.6,3.2,1
		c0.9,0.3,1.8,0.4,2.8,0.7c1.9,0.5,3.8,1,5.7,1.5c2.3,0.6,4.2,2.1,3.9,4.5c-0.2,1.6-1.4,3.8-2.8,4.4c-2.9,1.4-5.7,3.5-9.4,2.6
		c-1.5-0.4-3.2-0.4-4.7-0.3c-0.9,0-2,0.4-2.7,1c-1.9,1.7-3.9,3.4-5.4,5.4c-1.1,1.5-5.9,3.5-7.8,2.7s-2.6-4.6-1.7-6.9
		c0.5-1.2,0.1-2.8,0.3-4.2c0.1-1.1,0.5-2.2,0.7-3.3C1407.1,221.1,1407.4,221.1,1407.7,221z"/>
	<path d="M1597.1,28.2c-3.3,0.5-6.7,1-10.1,1.4c0.2,0.5,0.3,0.9,0.6,1.8c-4.8-0.6-9.1-1.5-13.5-1.6c-4.2-0.1-8.5,0.6-12.7,0.9
		c-1.8,3.3-5.3,2.8-8.1,3c-4,0.4-7.7,1-11.4,2.9c-1.8,0.9-4,0.8-6.1,1.2c-0.4,0.1-1,0.1-1.2,0.3c-1.6,1.6-3.2,3.3-4.8,4.9
		c-0.2-0.1-0.4-0.2-0.6-0.3c1-2.1,2.1-4.2,3.2-6.6c-8.4-0.7-15.2,4-23,4.7c3.7-1.3,7.4-2.9,11.2-3.8c12.1-2.9,24.2-6.3,36.5-8.1
		c12.4-1.8,25.1-1.9,37.6-2.7c0.3,0,0.8,0,1,0.2C1596.2,26.9,1596.5,27.4,1597.1,28.2z"/>
</g>
<line class="st3" x1="150" y1="483" x2="1206.5" y2="483"/>
<polygon class="st1" points="1073.1,114.3 1064.4,112.8 1058.3,119.2 1056.9,110.4 1049,106.6 1056.9,102.6 1058.1,93.9 
	1064.3,100.2 1073,98.6 1068.9,106.5 "/>
<polygon class="st1" points="902,114.3 883.7,92.5 855.5,95.2 870.5,71.1 859.2,45.1 886.8,51.9 908.1,33.1 910,61.5 934.5,75.9 
	908.2,86.5 "/>
<polygon class="st1" points="73.3,302.6 53.4,291.9 33.1,302.2 37.2,279.9 21.1,263.8 43.6,260.8 53.9,240.6 63.7,261 86.2,264.5 
	69.7,280.2 "/>
<polygon class="st1" points="84.2,129.3 68,124.9 55.2,135.9 54.3,119.1 40,110.3 55.7,104.3 59.6,88 70.1,101 86.9,99.7 
	77.8,113.8 "/>
<polygon class="st1" points="1008.2,201.3 996.2,203.9 991.5,215.3 985.3,204.7 973,203.7 981.2,194.5 978.3,182.6 989.6,187.5 
	1000,181.1 998.8,193.3 "/>
<polygon class="st1" points="1073.1,289.9 1062.6,284.9 1052.5,290.6 1054.1,279.1 1045.5,271.3 1056.9,269.2 1061.7,258.6 
	1067.2,268.8 1078.8,270.1 1070.7,278.5 "/>
<polygon class="st1" points="1304,468 1293,463.7 1283.2,470.4 1283.9,458.6 1274.6,451.4 1286,448.3 1290,437.2 1296.4,447.2 
	1308.2,447.5 1300.7,456.7 "/>
<polygon class="st0" points="1858,73.7 1852.8,66.1 1843.6,66.1 1849.2,58.8 1846.3,50.1 1855,53.2 1862.4,47.8 1862.2,56.9 
	1869.6,62.3 1860.8,64.9 "/>
<polygon class="st0" points="1298,73.7 1280.3,72.8 1269.5,87 1264.8,69.8 1248,64 1262.9,54.2 1263.3,36.5 1277.1,47.6 
	1294.2,42.5 1287.9,59.1 "/>
<polygon class="st0" points="1308.2,130 1303.5,120.6 1293.2,119.1 1300.7,111.8 1298.9,101.5 1308.2,106.4 1317.4,101.5 
	1315.7,111.8 1323.1,119.1 1312.8,120.6 "/>
<polygon class="st0" points="1308.2,258.6 1297.1,258.7 1291,267.9 1287.5,257.4 1276.8,254.4 1285.7,247.8 1285.3,236.8 
	1294.3,243.2 1304.7,239.4 1301.4,249.9 "/>
<polygon class="st0" points="1832.5,483 1823.5,487.5 1822.1,497.4 1815.1,490.2 1805.1,491.9 1809.8,483 1805.1,474.1 
	1815.1,475.8 1822.1,468.6 1823.5,478.5 "/>
<polygon class="st0" points="1715.9,144.9 1715.3,144.2 1714.3,144.3 1714.8,143.5 1714.3,142.6 1715.3,142.8 1716,142.1 
	1716.1,143.1 1717,143.5 1716.1,144 "/>
<polygon class="st1" points="35.5,47.8 33.2,43.1 28.1,42.4 31.8,38.8 30.9,33.7 35.5,36.1 40,33.7 39.2,38.8 42.8,42.4 37.7,43.1 
	"/>
<polygon class="st0" points="1869.6,453.8 1849.3,451.6 1835.9,467.1 1831.7,447.1 1812.8,439.2 1830.6,429 1832.3,408.6 
	1847.5,422.3 1867.4,417.6 1859,436.3 "/>
</svg>
