<?xml version="1.0" encoding="utf-8"?>
<!-- Generator: Adobe Illustrator 22.0.0, SVG Export Plug-In . SVG Version: 6.00 Build 0)  -->
<svg version="1.1" id="Layer_1" xmlns="http://www.w3.org/2000/svg" xmlns:xlink="http://www.w3.org/1999/xlink" x="0px" y="0px"
	 viewBox="0 0 1920 540" style="enable-background:new 0 0 1920 540;" xml:space="preserve">
<style type="text/css">
	.st0{fill:#E51F1F;}
	.st1{fill:#4BB72C;}
	.st2{fill:#90b6f9;}
	.st3{fill:#FCFCFC;}
</style>
<rect class="st0" width="1920" height="540"/>
<circle class="st1" cx="960.3" cy="886.1" r="661.6"/>
<g>
	<path class="st2" d="M632.3,1437.7c7.4,3.9,14,7.9,19.2,15.3c2.6,3.6,8.3,5.9,11,10.8c0.6,1,4.4,0.3,6.8,0.3c4-0.1,8.1-0.9,12-0.3
		s7.6,2.8,11.6,3.6c8.2,1.7,11.8,6.8,13.5,14.8c0.8,3.6,4.5,8.1,7.8,9.2c15.7,5.4,31.8,9.8,48.9,14.8c-0.1-2.6-0.2-3.8-0.3-5.1
		c1.9,0,3.8-0.1,5.7-0.1c-6.3-10.3-13.1-19.4-25.1-22.8c-6.4-1.8-13.1-3.9-18.5-7.6c-7.6-5.2-14-11.6-23.6-13.6
		c-3.3-0.7-8.6-4-3.8-9.8c0.4-0.5-1.4-3.2-2.6-4.4c-3.2-3.2-6.9-6-9.9-9.4c-2.8-3-2.4-5.6,2.1-6.7c3.6-0.9,7.2-2.4,10.9-2.9
		c9.1-1.3,11.3-10.9,18.6-14.9c12.1-6.6,22.5-2,23.8,11.5c0.2,2.3,1.2,4.5,1.9,6.7c2-1.5,4.2-2.9,5.9-4.7c1.5-1.5,2.5-3.5,4.2-6.2
		c-1.9-0.7-3.8-1.2-5.4-2.1c-2.7-1.6-7.9,0.1-7.3-6.3c0.3-2.7-13.6-7.2-16.8-7c-3.2,0.1-6.4-1.2-11.2-2.2c2.8-3.1,4.2-4.7,6-6.7
		c-6.1-3.8-8.4,2.5-10.7,4.9c-5.8,5.9-9.7,13.6-19.8,13.7c-4,0-6.8,6.8-12.2,3.4c-2.7-1.7-5.5-3.1-8.3-4.6c0.2-0.7,0.4-1.3,0.5-2
		c1.9-0.2,3.8-0.4,6.3-0.7c-1.3-1.4-2.4-2.7-4.6-5.1c4-0.5,7.9,0.1,10.4-1.5c4-2.5,7.9-5.9,10.2-10c3.7-6.5,8.5-8.4,15.2-6.7
		c11.5,2.9,20.1-3.3,29.4-8.2c3.5,7.5,8.7-2.8,13.1,0.8c0.6-3,1.1-5.2,1.5-7.3c-4.8-1.8-10.8-0.9-12.1-7.5c0-0.2-4.1-0.3-5.4,0.7
		c-3.1,2.4-5,6-9.9,2.1c-1.7-1.3-6.2,1-9.4,1.4c-0.8,0.1-1.7-0.4-2.5-0.5c0.7-3.1,9.1-7.3-1.7-8c-3.8-0.2-4.9-9.9-2.7-14.6
		c5.8-1,11-2.4,16.1-2.6c3-0.1,6.2,1.8,9.2,2.8c3.2-1,7.1-2,10.7-3.4c3.2-1.3,9.1-0.9,5.7-7.6c-0.4-0.7,1.8-2.9,3-4.2
		c2.6-2.6,2.3-9-0.6-11.2c-5.3-4-5.8-7.1-0.7-11.1c6-4.7,4.7-9.9,1.2-14.4c-3-4-6.6-6.9-3.6-12.5c0.3-0.6-1.3-2.3-2.5-4.4
		c10.2,2,19.5,2.8,28.2,5.7c9,3,17.5,7.8,26.1,12.2c3.7,1.9,7.1,16.8,4,18.9c-6.3,4.5-2.4,10.4-0.4,12.5c6.2,6.4,2.8,11.5,0.3,17.5
		c-1.7,4-1.8,8.8-3.8,12.6c-3.5,6.9-3.3,15.4-10,21.2c-2,1.7-1.6,7.9-0.4,11.4c1.7,4.8,5.8,8.7,11.6,7.8c6.3-1,10.8,1.1,14.6,7.1
		c-1.3,1.3-2.9,2.5-4.2,4.1c-2,2.3-5.2,4.7-5.4,7.2c-0.6,8.2-5.3,9.6-12,8.2c-3,7.7-5.5,14.9-8.6,21.8c-2,4.5-5.5,4.3-8.6,1.1
		c-4-4-8-5.9-13.9-3.4c-1.9,0.8-5.1-1.8-8.1-2.9c-3.6,8.8,1.6,15.9,3.4,23.5c0.5,2.1-0.1,4.5,0.6,6.5c2.8,8.6,7.6,16,15.2,21
		c6.1,4,4.3,8.5,2,13.7c11.9,5.3,23.8,10.9,35.9,15.9c5,2.1,10.9,2.1,15.7,4.4c18.7,9,38,15.9,58.5,18.7c15.5,2.1,31.1,2.7,46.6,4.2
		c14.9,1.4,29.5,0.5,44.1-2.5c4.2-0.8,8.6-0.5,12.6-1.5c10.1-2.6,20.2-5.5,30.2-8.6c2.2-0.7,5.9-1.4,2.8-6c-1.2-1.9-0.1-7.7,1.8-8.9
		c5.3-3.4,3.4-6.7,0.6-9.4c-9.2-8.6-3.8-19.1,8.3-20.5c6.4-0.8,10-3.7,8.9-11.3c-0.8-6,7.3-11.2,15.9-10.4
		c9.6,0.9,19.2,3.7,28.7,3.2c7.5-0.4,14.8-4.5,22.1-7.4c9.7-3.8,19-8.8,28.8-12c12.8-4.2,25.9-7.4,39-10.3c3.8-0.9,8.7-0.5,12.2,1.1
		c13.2,6.1,26.6,5.4,39.5,0.5c12.5-4.7,24.1-11.9,36.5-17c9-3.8,18.8-5.7,28.1-9.1c6-2.2,11.7-5.5,17.4-8.6
		c9.7-5.3,19.3-10.9,29.1-16c3.3-1.7,7.2-2.2,10.8-3.4c9.9-3.4,13.5-11.6,15.9-20.8c1-3.6,2.3-7.2,3.7-10.6
		c6.1-14.5,5.4-22.5-6.2-32.2c-3.9-3.3-7.3-7.2-10.9-10.9c-3.2-3.2-14.9-3.6-20.8-0.2c-1.2-2.9-3-5.6-3.2-8.4
		c-0.8-10.9-4.4-13.9-14.8-11.1c-6.4,1.7-12.5,4.1-18.8,6c-6.4,1.9-7.8-4-9.7-7.4c-5.1-9.6-9.2-19.7-13.9-29.5
		c-2.2-4.5-13.3-8.1-18.3-7.8c-9.3,0.5-18.8-0.1-28.1,0c-2.1,0-4.8,0.6-6.1,2c-8.1,8.9-18.6,8-29,8.1c-1.6,0-3.8-0.4-4.7,0.5
		c-6,5.6-12.3,3.2-18.2,0.6c-5.9-2.6-11.4-6.2-17-9.4c-0.6-0.3-1-1-1.5-1.5c-4.5-5.1-8.7-10.4-13.5-15.2c-12-12-21.8-25.5-31.1-39.7
		c-7.8-12-19.7-20.4-32.8-26.8c-5.9-2.9-11.5-6.5-16.8-10.3c-10-7.1-21.2-10.3-33.2-10.5c-1.2,0-3.9,3.4-3.6,4
		c5.4,9.4,3.8,19.6,4.1,29.7c0.2,6.9,1.2,14,3.3,20.5c3,9.4-4.5,19.6-14.7,18.6c-1.9-0.2-4.4-0.4-5.7,0.5
		c-9.1,6.6-18,13.4-26.7,20.4c-2.2,1.8-3.3,4.9-5.2,7c-4.7,5.2-10.7,6.5-17.6,7.1c-7.5,0.7-13.6,5-19,10.6
		c-2.2,2.3-6.6,3.1-10.1,3.6c-8.2,1.2-16.5,1.4-24.7,2.8c-2.4,0.4-4.7,3.2-6.5,5.4c-3.5,4.3-7.2,6.9-12.9,4.6
		c-1.1-0.4-2.8-0.1-4,0.4c-12.1,4.4-24.2,8.8-36.2,13.3c-4.6,1.7-9.1,3.9-13.6,5.8c-2.1,0.9-4.2,1.5-7,0.7c4.8-2.6,9.8-5.1,14.5-8
		c1.5-0.9,2.4-2.6,3.6-4c-1.6-0.8-3.1-1.7-4.7-2.3c-1.5-0.6-3-1-3.1-1.1c2.3-1.4,4.8-3.2,7.5-4.6c5.9-3.1,11.7-6.4,17.9-9
		c5.7-2.4,11.7-4,17.6-5.9c0.7-0.2,1.7-0.4,2-0.9c6.6-13.5,19.7-10,30.8-12.3c4.9-1,9.2-5,13.8-7.6c4.2-2.4,8.3-5,12.6-7.3
		c6.8-3.7,13.3-8.6,20.6-10.7c12.2-3.6,24.9-5.3,37.3-7.9c3.4-0.7,6.9-1.5,10.6-2.4c0.6-6.7,1.9-13.2-4.3-18.2c-1-0.8-0.6-3.3-0.9-5
		c-1-5.4-1.7-10.8-3.2-16c-2.7-9.1-6.3-17.9-9.1-27c-2.2-7.2-2.5-15.2-11.7-17.7c-1.2-0.3-2.5-1.9-2.8-3.2c-1.4-6.4-2.3-13-3.8-19.3
		c-0.5-2-2.2-5.2-3.6-5.3c-5.1-0.5-5.9-3-5.4-7.3c0.2-1.5-0.6-4.3-1.2-4.4c-8.8-1.1-8.8-8-9.3-14.5c-8.3,2.3-13.1,1-17.5-7.4
		c-3-5.9-11.8-8.8-17.3-12.5c-5.6,3.9-10.6,6.8-14.8,10.5c-1.8,1.6-2.7,4.7-3,7.3c-0.9,6.5-6.5,13.9-12.5,15.1
		c-2.6,0.5-5.3,0.1-7.9,0.3c-2.5,0.2-5,0.7-9.2,1.3c6.8,5.6,12.9,10.8,19.1,15.9c0.6,0.5,1.3,0.7,1.8,1.2c2,2.1,4.3,24.4,2,26
		c-2.6,1.8-6,2.9-9.2,3.3c-4.5,0.6-9.2,0.2-13.8,0.2c-0.1,0.7-0.1,1.4-0.2,2c3.4,1.3,6.7,2.6,10.1,3.9c0.1,0.7,0.3,1.4,0.4,2.1
		c-4.7,1.5-9.6,2.7-14.2,4.4c-3,1.1-5.8,2.8-8.5,4.6c-5.8,3.6-10.1,9.6-17.7,10.5c-2.4,0.3-4.6,2.4-7.3,3.9
		c-0.9-6.9-5.4-3.5-8.7-2.4c0.4-5.2,0.5-9.8,1.3-14.3c0.3-1.8,2-4,3.6-4.9c5.3-2.8,11-5,16.5-7.4c1.3-0.6,3.6-1.3,3.7-2
		c0.7-11.5,15.6-15,15.2-27.2c-0.1-2.1,1.8-4.3,2.9-6.9c-0.8-1.2-1.8-2.9-2.8-4.5c-5.8-9.4-3.9-15,6.9-16.6c5.9-0.9,6.8-4,7.7-8.5
		c2.2-10.9,4.7-21.8,7-32.7c0.3-1.6,0.4-3.3,0.4-5c-0.2-14.3-0.5-28.5-0.6-42.8c0-1.6-0.2-3.9,0.7-4.5c4.4-3.1,9-5.7,13.6-8.5
		c1.2-0.7,2.8-1,3.6-2c4.7-5.8,9.9-11.2,13.4-17.7c1.9-3.6,0.7-8.8,2.2-14.1c2,5.2,3.9,10.4,6.1,16.3c4.8-4.9,10.4-10.7,16-16.4
		c4.2-4.3,1.6-8.3-1.2-11.5c-2.1-2.5-5.3-4.9-8.4-5.6c-3.6-0.8-7.2,0-6.8-4.6c5.2-0.1,10-0.1,14.8-0.3c3.5-0.2,7-0.4,10.5-1
		c11.5-1.8,23.2-2.8,34.4-5.8c12.7-3.4,24.8-9.8,37.6-12.3c11.9-2.3,20.9-9.9,32-13.3c6.6-2,13.3-3.4,19.7-5.8
		c3.7-1.4,7.3-3.7,10.2-6.3c2.9-2.7,3.4-5.9-1-8.6c-2.2-1.4-3.5-4.2-5.4-6.2c-1.7-1.8-3.6-3.4-5.5-5.1c-2.6-2.4-5.1-5-7.9-7.2
		c-1.5-1.2-3.7-3-5.1-2.6c-7.4,1.9-13.4-1.1-19.5-4.5c-1.9-1.1-4.5-1.2-6.8-1.1c-7.4,0.3-14.8,1.1-22.2,1.4
		c-1.2,0.1-3.2-0.5-3.7-1.4c-2.6-5.4-4.9-11-7.3-16.5c-0.6-1.5-1.3-4-2.2-4.1c-9-1.3-9.7-10.9-15.6-15.4c-5.4-4.1-9.7-9.7-14.4-14.7
		c-0.8-0.9-1.7-2-1.8-3.1c-1-8.5-5.8-12.6-15.1-14.1c-2.1-0.3-4.1-3-5.5-5c-1.1-1.7-1.3-4-1.9-6.3c6.1-3.8,4.2-16.2-5.2-27.8
		c-2.8,1.5-5.5,3.1-9.5,5.3c2.3-4.1,3.5-6.6,5.2-8.9c1.4-1.9,2.9-4.2,4.9-5c3.7-1.6,7.8-2.4,11.8-3.3c8-1.8,11.8-8.1,16.7-13.9
		c9.7-11.4,22.6-14.3,37-11c0.7,0.2,1.4,0.6,2.1,0.7c1.6,0.3,3.3,0.4,6.8,0.8c-0.3-5.5,0.7-11.1-1.1-15.7
		c-1.7-4.7-6.1-8.3-10.1-13.3c6.4-2,14.1-4.7,22-6.8c11.1-3,22.3-5.8,33.5-8.2c2.7-0.6,5.9,0.1,8.7,0.6c5.4,1.1,10.1,3.4,16.3,2
		c4.2-1,9.5,3.2,14.3,5.1c-0.1-0.9-0.3-1.8-0.4-2.7c5.6-4.1,11-8.4,16.7-12.3c9-6,20-3.8,29.4-6.6c11.4-3.4,22.7-10,28-22.5
		c0.6-1.5,2.2-2.6,2.6-4.1c1.1-3.5-0.3-5.7-4.2-5.1c-3.3,0.5-7.4,0.7-9.5,2.7c-5.3,5.1-11.1,2.4-16.8,2.7c-4,0.3-8.4,0.9-11.8,2.9
		c-7.1,4.1-11.7,10.6-15.9,17.7c-2,3.3-4.8,7.5-11.6,5.7c-3.8-1-10.8,2.5-13.5,6.1c-4.3,5.8-9,4.7-13.8,3.3
		c-8.8-2.5-17.3-6.4-26.2-8.5c-3.7-0.9-5.6-2.2-4.8-5.2c0.4-1.6,3.7-2.5,5.8-3.5c0.7-0.3,1.8,0.1,2.9,0.2
		c0.7-11.4,6.4-17.9,17.4-20.7c2.7-0.7,4.4-5.8,6.4-8.9c2-3.1,3.8-6.3,5.2-8.5c5.7,1,10.8,2,15.9,2.9c0.5-0.8,0.9-1.6,1.4-2.4
		c-5.6-5.5-11.3-10.9-16.8-16.5c-1-1-1.2-2.7-1.6-4.2c-3.1-14.3-15.3-22.6-29.9-21.5c-12.7,0.9-24.7,2.9-34.6,11.4
		c-4.4,3.8-7.4,9.8-12.2,12c-7.3,3.3-13,11.8-22.6,8.9c-2.1-0.6-4-2.3-5.9-3.5c-1.2-0.7-2.3-1.8-3.6-2.2
		c-8.5-2.8-14.6-16.1-11.2-24.1c0.7-1.6,0.5-3.7,0.7-6.1c5.7,1.4,10.6,1.1,11.9-7.4c-6.6,4.2-10.3,3.8-10.5-4.3
		c-0.1-3.7-1-7.8-2.8-10.9c-2.4-4-6-7.3-9.4-11.2c2-3.4,1.4-20.8-2.8-24.2c-12.2-10.1-21.7-25.9-40.4-23c-2.5-2.4-4.6-6.2-7.1-6.5
		c-7.2-1-11.6-10.1-20.3-6.4c-1.3,0.5-4.2-3.2-5.7-2.7c-4.2,1.4-9.7,2.5-7.8,9.5c0.2,0.9-1.9,2.4-2.6,3.3c-1.9-3.6-3.7-7.1-5.9-11.2
		c-4,3.4-7.5,6.4-11.9,10.1c0.4-3.2,0.7-5.6,0.8-6.8c-9.9,4.8-20.3,9.7-30.6,14.9c-1.3,0.7-2.2,2.4-2.9,3.9
		c-4.3,8.1-11.3,9-18.2,3.5c-3.5-2.8-7.1-5.8-9.7-9.3c-1.6-2.1-1.4-5.5-2.1-9.1c-5.3-1.9-8.6,0.3-8.4,7.4c0,0.7,0.4,1.7,0.1,2.1
		c-4.6,5.5-8.3,10.8,2.1,14.2c0.2,0.1-0.4,5.7-2,7.3c-4.5,4.6-9.5,8.8-14.7,12.6c-1.7,1.2-4.9,0.9-7.2,0.3c-1-0.2-1.4-2.9-1.9-4.5
		c-0.4-1.3,0-3.4-0.8-4c-5.1-3.5-10.2-7.1-15.7-9.9c-3.8-1.9-6.6-4.6-4.4-8.2c1.7-2.8,4.4-7.2,9.8-3.9c3.5,2.2,7.7,3.6,11.8-0.1
		c1-0.9,3.7,0.2,8.1,0.5c-12.9-8.2-16.7-17.6-7.4-29.6c3.9,0.2,8.6,0.5,13.4,0.7c4.7,0.1,7.7-0.1,8.3-6.8c0.3-3.7,6.9-6.9,10.7-10.1
		c0.1-0.1,2.2,2.4,1.9,2.1c7-1.3,12.8-2.9,18.6-3.2c9.4-0.4,10.5-1.5,7.5-9.8c-0.1-0.2-0.1-0.5-0.2-0.7c-0.8-3.4-0.6-9-2.6-9.8
		c-3.5-1.5-8.5-1.2-12.4-0.1c-14.7,4.1-27.7,11.2-39.1,21.5c-2.1,1.9-8.6,2.1-10.3,0.4c-6-6-11.4-9.9-20.4-6.2
		c-2.2,0.9-6.1-1.4-8.8-3c-3.4-2-6.4-4.7-10.3-7.7c0.7-0.8,1.9-2.3,3.3-3.7c4.9-4.7,4-10.3-2.6-12.6c-10.1-3.4-20.2-7.1-30.6-9.3
		c-6.1-1.3-12.9,0.6-19.3,0.2c-12.2-0.7-23,2.3-33.6,8.4c-5.2,3-11.8,3.4-17.8,5.1c-4.3,1.2-8.4,2.8-12.7,4.2
		c7.5-4.9,14.5-10.9,22.5-14.5c19.9-8.9,40.3-16.6,60.3-24.7c-0.2-2-0.5-4.5-0.9-8.1c-8.2,9.5-18.7,13-29.7,15.9
		c-5.2,1.4-4.9-1.1-3.6-5.1c-20.5,11.8-40.7,23.4-60.8,35.1c0.2,0.9,0.4,1.7,0.6,2.6c1.8-0.1,3.6,0,5.4-0.2c2.2-0.3,4.3-0.8,6.5-1.2
		c-6,4.8-12.3,9.4-18.1,14.6c-8,7.2-7.8,7.7-1.6,13c-1.2,3.1-2.1,5.5-3.1,8c-0.2,0.4-0.6,1-1,1c-9.2,0.9-10.4,8.8-12.8,14.8
		c-8.8-1.4-16.8-3.1-25-3.9c-8.1-0.8-16.4-0.6-26.2-0.9c1.5-6.2,3.2-13.2,4.9-20.1c0.3-1.1,1.4-2.3,1.2-3.2
		c-2.7-9.6,2.5-14.5,9.9-19.1c2-1.2,1.8-6.2,2.3-8.4c-8.2,4.3-16.2,8.5-25.5,13.4c2-10.3,11.1-12.9,15.8-19.1
		c-0.9-0.3-1.9-0.6-4.2-1.4c12.6-8.6,24.5-15.7,38.7-19.6c9.5-2.6,18.5-7.5,27.1-12.5c18.8-10.8,37.1-22.3,55.6-33.6
		c1.1-0.7,2-1.8,4.2-3.8c-3.8,0.2-6.3-0.1-8.4,0.6c-7.5,2.5-14.8,6.8-22.5,7.7c-10.3,1.3-17.6,8.3-26.9,11.4
		c-6.9,2.4-12.6,8.3-18.8,12.7c-7.9,5.7-15.7,11.5-23.5,17.2c-0.5-0.5-1-1-1.5-1.5c0.9-1.4,1.6-3,2.8-4c26.6-22,53.9-43.1,84.2-59.9
		c25.8-14.4,51.7-29,78.5-41.4c21-9.8,43.2-17.5,65.5-24c29.2-8.6,58.8-16.5,88.7-22c40.4-7.4,81.4-10.1,122.6-9.1
		c59.7,1.3,118.1,10.3,175.5,27c55.5,16.2,107.7,39.7,157.2,69.5c38.2,23,73.8,49.6,105.9,80.4c23.3,22.4,45.5,46.2,65.6,71.4
		c8.5,10.6,16.9,21.7,24.7,33c15.5,22.4,30.3,45.4,43.3,69.3c11.8,21.7,21.6,44.6,30.7,67.5c8.5,21.2,16.3,42.8,21.9,64.8
		c7.7,30.3,14.7,61,19.1,91.9c4,28.4,5.3,57.3,5.7,86c0.8,70-9.6,138.6-32.3,204.9c-10.3,29.9-21.5,59.8-35.3,88.2
		c-13.2,27.3-29.4,53.3-46,78.7c-28.9,44.2-64,83.4-102.9,119.1c-26.3,24.1-55,45.2-84.9,64.9c-30.7,20.2-62.7,38.4-96.6,52.1
		c-31.7,12.9-64.5,23.4-97.4,33.1c-46.1,13.6-93.5,19.4-141.5,21c-74.7,2.6-147.8-7-219.4-28.9c-54.8-16.8-106.6-40.3-155.1-70.7
		c-36.8-23-70.8-49.6-102.6-79.3c-31.1-29.1-59-61-83.9-95.2c-16.8-23.1-31.8-47.8-45.4-73c-13.8-25.5-26-52.1-36.6-79.1
		c-14.2-35.9-24.3-73.2-31.5-111.2c-7.7-40.8-11.3-81.9-11.7-123.6c1.9,0.1,3.7,0.2,5.8,0.3c0.9,4.9,3.1,10.3,2.6,15.5
		c-1.1,12,3.3,22.9,5.4,34.3c0.7,3.6,3.9,6.7,7,11.6c1.4-5.6,2.2-9,3.6-14.5c2,14.5,3.6,26.7,5.4,39.7c10.4-6.2,9-15.7,10.1-24.1
		l0,0c0.7,5,2,10.1,1.8,15.1c-0.2,5.8-1.6,11.6-2.5,17.4c0.7,0.5,1.4,1.1,2.1,1.6c1.1-0.6,2.3-1.1,4-2c0,3.4-0.1,7.2-0.2,11.3
		c3.1-1.7,3.1-1.7,5.6-16c0.3,5.1,0.8,8.3,0.6,11.4c-0.2,3.1-0.3,6.8-2.1,9c-2,2.4-5.8,3.4-8.7,4.9c4.8,2.7,8.9,5.1,13.1,7.5
		c1.3-3.4,2.6-6.6,3.2-8.2c5.8-1.2,10.2-2.2,15-3.2c-1.5-7-2.7-12.9-4.3-20.4c2.2,3.4,3.7,5.2,4.6,7.2c3.8,8,3.7,8.1,10.5,0.6
		c5.9,5.3,14,9.7,16.9,16.3c2.1,4.6,3.8,13.3-3.5,21.3c4.1-18.5-4.5-24.2-18.8-24.6c0.3,0.6,0.5,1.3,0.8,1.9
		c-4.6,2.9-9.1,5.9-13.7,8.7c-3.7,2.2-7.5,4-11.3,6c0.2,0.7,0.4,1.4,0.6,2.1c-1.5-0.6-3-1.4-4.6-1.7c-3-0.6-5.7-0.7-5.5,3.7
		c0.3,5.2,0.4,10.4,0.7,15.6c0,0.6,1.1,1.5,1.9,1.8c5.5,1.7,11.1,3,13.8,9c0.3,0.6,2.5,0.7,3.7,0.5c3.1-0.5,6.2-1.4,9.3-2.1
		c1.5-4.7,3.3-10,5.2-15.8c2,0.8,3.8,1.5,5.6,2.2c0.2,0.5,0.5,1.1,0.4,1.4c-7,15.2-8.2,31.1-6.4,47.5c0.2,1.4,1.7,3.8,2.6,3.8
		c2.1,0,4.1-1.2,6.6-2c1.6,2.1,3.6,4.9,6.1,8.2c-1.5,0.6-3.2,1.3-5.3,2.2c4.4,11.4,8.8,22.8,13.3,34.2c-0.3,0.2-0.7,0.3-1,0.5
		c-0.8-0.9-1.6-1.8-2.3-2.7c-0.5,0.2-1,0.5-1.5,0.7c0.6,1.4,1.2,2.8,1.9,4.2c5,10.3,9.9,20.6,15,30.8c0.7,1.3,2.6,2,4,2.9
		c6.4,3.8,7,10,0.9,15.7c-1.7-3.4-3.3-6.7-5-10c-0.8,0.1-1.7,0.1-2.5,0.2c0.1,4.9,0.2,9.8,0.3,14.1c1.3,0.7,1.5,0.9,1.6,0.9
		c3-1,15.8,0.4,17.6,2.2c1,1,2.4,2.7,2.1,3.7c-2.4,8.4,4.8,12.5,8.1,18.2c1.7,3,3.9,7,9.1,4.3c0.6-0.3,4,2.6,4.2,4.3
		c0.4,2.6-1.2,5.4-1.2,8.2c0.1,3,1.1,6,2,10.4c2.1-2.2,2.5-2.5,2.8-2.9c1-1.8,2-3.5,3-5.3c1,2.7,2.8,5.3,2.9,8
		c0.1,2.1-1.7,4.3-3.3,7.9c-3-0.7-7.4-1.7-11.7-2.7c-1.1,2.9-2.3,5.8-3.4,8.8c-0.6-0.1-1.2-0.2-1.8-0.3c0.1-2.6,0.5-5.3,0.1-7.8
		c-1.5-9.5-2.5-19.1-5.1-28.3c-1.2-4.1-5.8-7.3-9.3-10.5c-0.6-0.5-4.6,0.9-4.9,2c-2.6,10.5-6.8,20.8-0.4,31.7
		c1.9,3.2,0.9,8,1.3,12.8c-1.7-1.8-3.1-3.3-4.5-4.8c-0.3,0.1-0.7,0.2-1,0.4c1,3,1.6,6.3,3,9.1c3.6,7.1,7.2,14.2,11.5,20.9
		c6.1,9.5,11.8,19.5,19.5,27.7c13.5,14.6,28.3,27.8,42.5,41.8c11.1,11,22.5,21.7,33,33.2c10,10.8,23.5,15,35.8,21.7
		c0.3,0.2,0.9-0.3,3-0.9c-6.1-6.8-11.6-13-17.8-19.9c10.1,1.3,19,2.5,29.7,4c-2.2-2.8-3.4-4.4-4.7-5.8c-0.8-0.8-2.7-1.1-2.8-1.9
		c-2.6-11.8-14.5-11.5-21.8-17.1c-5.9-4.5-12.1-8.8-17.6-13.7c-4-3.6-6.6-3.4-8.9,1.3c-11.5-4.3-19.7-12.2-27.5-20.9
		c-4.9-5.4-10.7-10.1-16.7-14.3c-6.6-4.6-10.7-11.1-10.3-20.3c7.6,7.5,15.3,13.9,21.3,21.6c6.7,8.7,16.5,10.5,25.6,14.4
		c1.3-2.5,2.6-4.9,4.2-8c-5.3-10.1-14.6-19.9-10.9-33.7c3.4,4.3,7.4,7.9,9.6,12.5c2.1,4.4,1.7,10.1,3.6,14.7
		c2.6,6.1,5.4,12.2,14.8,9.5c3.1-0.9,7.5,2.6,11.9,4.3c-6,6.7-5.7,8.9,0.8,12.2c4.6,2.3,10,3.1,14.1,6c5.3,3.7,10.2,8.3,14.3,13.4
		c1.4,1.7-1.5,6.7-0.2,8.8c3.4,5.4,8,10.1,12.1,15c0.4,0.5,0.8,1.1,1.6,2.1c-6.2,3.4-1.8,6.6-0.3,10.3c0.6,1.6-0.8,4.1-1.2,6.1
		c-1.8-0.6-6.6,2.1-4.1-3.6c0.1-0.3-1.4-1.9-2.4-2.2c-5.6-1.7-11.3-3.2-16.3-4.6c9.8,10.3,9.3,11.8,23.9,14.7
		c5.9,1.2,10.4,3.2,13.3,10c3.7,8.6,12.2,13.5,20.5,18.1C627.2,1431.5,629.6,1435,632.3,1437.7c-2.2-0.4-4.5-0.6-6.7-1.2
		c-2.4-0.6-4.6-2.2-7-2.3c-9.1-0.4-18.4,0.8-26.5-5.2c-1.6-1.2-4-1.4-6-2.1c-0.3,0.9-0.7,1.7-1,2.6c6.9,3.5,13.7,7.4,20.8,10.4
		c4.4,1.9,11,1,13.8,4c7.3,7.6,17.2,8.7,26.5,14C641.1,1450.5,636.7,1444.1,632.3,1437.7z M1044.2,449.3c4.6-2.3,9.1-4.6,13.7-6.9
		c-0.3-0.7-0.6-1.5-0.9-2.2c-4.4,1.5-8.8,3.1-13.8,4.8C1043.4,445.9,1043.9,447.7,1044.2,449.3c-3.9-1-5.9,0-5.1,4.6
		c0.3,1.6,0.1,4.2-0.9,5.1c-3.7,3.2-14.1,1.2-18.4-1.4c-4-2.4-9.2-3.5-14-4c-3.2-0.4-6.6,1.2-9.2,1.7c-0.9,3-2,6.4-3.2,10
		c6.5,7.3,19.1,0.3,25.3,10.2c4.2-5,14.8,1.8,16.8-8.6c1.9,0.2,4.6,0.9,6.9,0.3c1-0.3,2.5-4,1.9-4.8c-4.6-5.9,0.4-7.2,4-9.3
		c0.2-0.1,0.1-0.8,0.3-1.6c-1.8,0.5-3.5,1-5.7,1.6C1043.4,451.6,1043.8,450.5,1044.2,449.3z M1478.4,624.8c7-8.2,6.8-11.1,2.5-20.6
		c-4.7-10.5-10.9-20.4-10.6-32.9c0.1-4.5-4-9.2-6.4-13.7c-3.6-6.9-7.6-13.6-10.9-20.6c-2.3-4.9-3.2-10.4-5.5-15.3
		c-4.8-10.2-7.5-20.5-3.5-32c4.9,0.8,9.4,1.6,14.4,2.5c-3.3-4.3-6.5-8.5-9.4-12.2c2.9,0.1,5.7-0.4,8.1,0.3c3.7,1.1,7.1,3,10.7,4.5
		c1.6,0.7,3.4,1.1,5.6,1.7c-0.4-11-6-19.2-11.9-26.2c-12.7-15-25.9-29.8-40.3-43.2c-22.9-21.3-44.1-45.7-77.2-51.5
		c-7.7-1.4-15.7-6.1-23.5,0.5c-1,0.9-3.6,0.2-5.3-0.2c-7.8-2-15.4-4.4-23.2-6.1c-2.1-0.5-4.7,1.1-7.1,1.7c0.1,0.4,0.3,0.7,0.4,1.1
		c-7.4-0.8-14.8-1.6-22.2-2.4c-0.1,0.6-0.2,1.2-0.3,1.8c4.4,2.2,8.9,4.5,13.4,6.5c11.3,5.2,22.7,10,33.8,15.6c4,2,7,5.9,10.1,8.6
		c-4.2,5.2-7.1,9.5-10.8,13c-3.1,3-6.5,6.6-11.6,2.1c-4-3.6-8.8-6.4-13.3-9.5c-1.8-1.2-3.7-2.2-5.2-3.1c0,5.1,0.7,9.5-0.1,13.6
		c-0.9,4.6-3.3,8.9-5,13.3c0.5,0.2,1,0.4,1.5,0.7c1-1.3,1.9-2.6,3.5-4.6c1.6,2.3,3.9,4.1,3.9,5.9c-0.1,6.8,5.9,9.5,8.6,14.3
		c4.8,8.5,19,7.2,19.4,19.6c0,0.3,0.1,0.6,0-0.1c-3.1,1.4-7.1,2.1-8.1,4.1c-1,2.1,0.8,5.7,1.9,8.4c0.9,2.2,2.3,4.4,3.9,6.1
		c3.4,3.7,6.9,9.8,10.8,10.1c6.6,0.6,7.3,2.6,5.4,7.5c3.5,1.3,6.4,2.5,10.4,4.1c-3.6,1.1-5.5,1.6-7.5,2.2c-0.2,0.7-0.5,1.4-0.7,2.2
		c5.4,2.9,11,5.2,16,8.7c12.2,8.6,15.6,22.3,20,35.4c2.9,8.4,6.1,16.8,9.9,24.9c2.2,4.5,6.7,8,8.5,12.6c1,2.4-0.7,5.5,3.6,6.5
		c3.6,0.9,7.2,2.5,10.1,4.8c4.8,3.6,9.5,5.2,15.4,3.6c1.9-0.5,4.1,0.2,7.7,0.5c-2.9,2.1-4,2.9-5.3,3.8c2.8,0.6,4.8,1.2,6.9,1.4
		c4.9,0.7,9.8,1.8,14.7,1.7c11.4-0.3,22.2,2.2,32.1,7.5C1470.9,616.5,1474.3,621,1478.4,624.8z M1161.7,503.2
		c-4.5-6.8-7.9,0.9-11.7,0.4c-3.6-0.5-7.1-2-10.9-3.1c0-2,0.1-4.1,0.1-6.8c-2.4,0.7-4.3,1.2-5.8,1.6c-1.1-3.2-2.1-6-3-8.8
		c-4,5.8-6.2,11.1-13.2,13.1c-4.9,1.4-4.5,8.2,0.7,10.2c7.4,2.9,12.2,7.7,15.4,14.8c1.3,2.8,4.1,5,6.3,7.5c4.4,5.1,12.6,7.1,13,15.3
		c0.3,5,3,7.4,7.2,8.6c7.4,2.2,5.9,7.3,4.1,12.4c-0.5,1.5-1.6,2.7-2.4,4c7.6,7.9,17.4,8.6,28.9,4.1c1.5-0.6,2.6-2.4,4.4-4.2
		c14.6,2.8,14.6,2.7,14.9-13c1.5-0.1,2.9-0.2,4.3-0.2c-1-4.7-2.9-8.9-2.3-12.7c0.6-3.6,4-6.6,6.7-10.7c-0.6-2.5-1.5-6.7-2.6-11.3
		c-0.9,0-2.8,0.7-3.6,0c-7.2-5.2-18.6-2.7-23.1-12.9c-0.6-1.3-3.8-1.1-5.6-2.1c-4.1-2.2-8.1-4.5-11.8-7.4c-0.9-0.7-0.1-3.5-0.1-5.3
		c-2,1.1-4.1,2.1-6,3.4C1164.5,500.5,1163.5,501.6,1161.7,503.2z M1279.6,1175.1c1-1.5,3.3-5.2-2-4.6c-10.4,1.1-21.5,0.2-30.3,7.6
		c1.6,6.5,15,1.3,11.7,11.6c3,0.8,8.4,1.2,8.7,2.6c1.7,7.5,9.1,12.8,7.4,21.6c-1.2,6.2,6.1,14.3,11.7,12.2
		c11.9-4.7,21.8-4.1,31.4,4.7c5.4,5,11-0.1,16.2-1.3c5.1-1.2,10.3-3.2,14.6-6.2c4.7-3.3,4.1-8.6,4.3-14.3c0.2-7.5-2.6-9.8-8.6-12
		c-12.7-4.8-25.1-10.6-37.9-15.1C1298,1178.8,1288.8,1177.3,1279.6,1175.1z M1117.1,705c3.7-1.4,7.7-1.9,10.4-4
		c6.7-5.2,12.6-11.4,19.1-16.7c3.2-2.6,7.1-4.2,10.6-6.3c3.7-2.1,7.4-4.4,11.2-6.3c2.1-1,4.7-1.1,6.8-2.2c5.6-2.9,10.8-6.4,16.5-9
		c3.5-1.6,8.4-1,11.4-3.2c7.9-5.9,15.6-12.3,22.5-19.3c3.7-3.7,9.7-6.8,8.6-13.7c-0.4-2.6-1.2-5.2-1.9-8c-7.2-1.8-14.7-3.6-23.1-5.7
		c-1.4,1.1-5.9,3.1-5.8,4.9c0.2,6.3-4.6,5-7.7,6.3c-1.7,0.7-3.6,0.7-5.7,1c0.4,6-0.2,10.5-7.8,6.3c-3.9-2.1-7.2-2.9-7.2,4.1
		c0,2.6-4.5,5.2-7.2,7.6c-1.7,1.6-4.1,2.4-5.7,4.1c-4.6,4.8-8.9,9.8-13.5,14.6c-3.2,3.3-6.7,6.2-10.1,9.3c-2.9,2.6-5.6,5.4-8.6,8
		c-2.5,2.2-6.5,3.5-7.5,6.2C1120.2,689.5,1119.2,696.4,1117.1,705z M1240.9,367.2c0.8-0.3,1.4-0.7,2-0.8c3.7-0.4,6.3-2.3,5-6.1
		c-1.1-3.3,1.5-8.8-6.2-9.2c-3.4-0.2-6.7-5.7-9.5-9.2c-0.4-0.5,2.7-4.6,4.8-5.7c3.1-1.5,6.9-1.8,10.2-2.6c0.4-3.5,0.7-6.7,1.1-10.3
		c-2.1,0.1-4.5-0.3-6.2,0.5c-8,3.7-15.9,8.3-24-0.6c-1.8,2.8-3.2,5-4.7,7.3c-5.8-1.9-9.4,0.6-11.8,5.8c-4.6,9.9-9.4,19.8-14.1,29.9
		c6,5.8,11.6,11.4,17.2,16.8c-5.3,10.1-13.8,2.7-19.4,3.7c-9.5,9.8,0.8,14.9,2.9,21.1c2.9-2.7,5.7-5.4,8.9-8.5
		c-0.3-2.4-0.8-5.4-1.2-8.5c0.7-0.2,1.5-0.5,2.2-0.7c1.4,4.3,2.8,8.6,4.2,13.1c1.7-1,3.4-2.4,5.3-3.2c1.4-0.6,3.1-0.5,4.7-0.7
		c-1.2-1.5-2.4-3-3.7-4.7c1.7-3.3,4.3-6.9,5.4-10.8c4.1-14.4,13.3-17.3,24.7-7.7c1.5,1.2,3.3,2,5.9,3.5
		C1243.2,374.9,1242.1,371.1,1240.9,367.2z M836,406.5c5.8-0.6,11.8-1.1,17.8-1.7c0-0.4-0.1-0.9-0.1-1.3c-1.1-0.5-2.2-1-4.2-1.9
		c2.7-1,4.5-1.7,6.3-2.3c-11-1.2-22.5-8.4-31.8,3.2c-0.2,0.3-2.5-0.3-2.8-0.9c-1.2-2.5-2.1-5.1-2.9-7.8c-1.2-4.4-2.1-8.9-3.5-14.5
		c4.3-1.5,9.8-3.4,15.3-5.3c-0.1-1-0.2-2-0.3-3.1c-5.2-0.8-10.4-1.6-15.2-2.4c8.5-7.1-1.4-11.2-4.4-16.8c2.3-0.5,4.2-0.9,6.1-1.3
		c0.1-0.7,0.1-1.3,0.2-2c-3-0.6-6.2-2-9.1-1.6c-12.1,1.5-23.9,6.3-36.5,3.6c-9.1-1.9-17,1.7-24.2,6.9c-2.8,2-5.4,4.3-8.2,6.4
		c0.4,0.9,0.9,1.7,1.3,2.6c2.8-0.3,5.7-0.1,8.2-1c11.5-3.8,23-5.1,34.8-1.4c5.1,1.6,7.4,5.1,6.9,10.8c4.5,0.8,9,1.6,13.4,2.4
		c0,5.4-0.2,10.8,0.1,16.2c0.1,1.4,1.9,3,3.3,3.9c5.9,3.9,11.9,7.6,17.9,11.4c2.2,1.4,4.6,3.5,6.7,3.4
		C833.1,411.9,834.5,408.5,836,406.5z M1217,470.7c0.6-0.4,1.2-0.8,1.8-1.2c-1.9,1.7-3.6,4.2-5.8,4.9c-4.4,1.4-9.2,1.8-14.1,2.7
		c-2.7-3.2-6.1-7.1-9.4-11.1c-0.7,0.5-1.5,1.1-2.2,1.6c1.6,4.9,3.1,9.7,5.2,16.2c-2.1,0.9-5.3,3.1-8.6,3.2c-2.1,0.1-6.1-2.6-6.3-4.5
		c-1-7-1.6-14.2-0.9-21.2c0.8-8.2-1.7-13.3-12.2-16.7c12.1,10.8,6.9,22,3.9,33.1c1.1,0.8,2.7,1.4,2.9,2.2
		c2.3,10.4,13.5,8.8,19.5,14.5c4.2,4,11,5.3,16.8,7.2c1.7,0.6,4.1-0.7,6.1-1.4c2.3-0.8,4.7-2.8,6.8-2.4c3.7,0.6,7.3,2.6,11.1,4.1
		c0.5-7,0.5-7-4.7-8.4c-5.7-1.5-11.5-2.7-17.2-4.4c-1.7-0.5-2.9-2.6-5-4.6c7.6-0.7,13.6-1.3,18.3-1.7
		C1221.1,479.1,1219,474.9,1217,470.7z M1245.1,621.6c0.4-2.8,0.2-5.4,1-5.7c7.8-3,7.3-12,7.1-16.1c-0.6-12.9,7.3-24.1,5.7-36.5
		c-0.7-5.8,1-10.1,3.5-14.5c-3.4-0.8-6.2-1.4-8.9-2c-0.7,4-0.5,10.7-2.2,11.2c-8.7,2.5-7.1,10.5-9.6,15.6c1.9,3,3.3,6,3.7,9.1
		c0.5,5.2-1,8.9-5.2,13.2c-3.5,3.5-3.2,11.6-3,17.5C1237.3,615.9,1241.7,618.2,1245.1,621.6z M374.1,1103.8
		c-2.1,3.3-3.4,7.6-6.1,8.9c-4.7,2.3-8.2-1.6-11.5-5c-12.7-13.2-20.2-29.2-26.4-46.1c-1.5-4.2-3-8.4-4.4-12.6
		c-0.7,0.2-1.5,0.5-2.2,0.7c3.8,11.8,7.6,23.6,11.3,35.5c6.6,21,23,34.8,37.4,50c0.5,0.6,1.7,0.5,3.9,1c-0.9-3.9-1.6-7-2.3-10.1
		C379.4,1122.2,379.2,1107.8,374.1,1103.8z M1061.2,855.4c4.1,0.7,7,0.3,8.4,1.5c8.6,7.3,18.5,4,27.8,3.5c5.8-0.3,7.3-5,6.2-10.2
		c-1.3-5.5-5-10.1-10.5-9.8C1081.4,841.2,1071.9,847.8,1061.2,855.4z M705.9,351.9c-0.6,12.7-16.4,13.1-20.8,23.2
		c9.1-2.1,17.7-4.1,26.9-6.2c-0.4,2.1-0.8,3.6-0.9,4.5c4,0.2,7.9,1.2,11.4,0.3c3.8-0.9,7.3-3.6,10.8-5.5c-1-1.3-2.3-3-3.5-4.6
		c-2.7,2.5-5.4,4.9-7.6,6.9c-6.8-8.5,4.7-10.3,5.3-16.1c-3.6-1.2-9.4,1.3-8.1-5.8c0-0.1-3.7-1.6-5.3-1.1
		C711.4,348.2,709,350.1,705.9,351.9z M1086.9,430.6c5.6,5.3,10.2,9.6,15,14.1c-2.4,1.5-4,2.5-5.7,3.6c1.3,1.5,2.6,3.1,3.9,4.6
		c0.7,0.8,1.6,1.7,1.7,2.6c0.8,7.2,7,3.9,10.8,5.2c-2.6-1.4-5.2-2.8-6.9-3.7c0.6-2.6,2-5,1.4-6.5c-2.5-5.8,1.6-5.5,4.7-5.1
		c10,1.3,12-0.3,11.7-11.2c-2.3,0.3-4.6,0.9-6.7,0.6c-2.2-0.3-4.2-1.5-6.3-2.3c0.1-0.4,0.3-0.9,0.4-1.3c1.1-0.2,2.2-0.5,3.5-0.8
		c-5.3-9.9-13.8,0.1-20.3-3.2C1092.7,426.4,1089.2,429.4,1086.9,430.6z M957,466.4c-11.4-2.2-21.4-4.3-31.4-5.9
		c-2.5-0.4-5.1,0.5-7.7,0.9c-0.2,1.2-0.4,2.4-0.6,3.6c5.2,2.8,10.1,6.4,15.6,8.1C941.2,475.7,948.5,471.9,957,466.4z M981,551.8
		c-8.4-2.1-10.4-1.3-10.6,5.3c-0.1,2.8,0.4,5.7,1.4,8.3c1.5,4,9.3,7.2,12.7,5c4.5-2.8,5.2-7.5,2.7-11.9
		C985.8,555.9,983.1,554,981,551.8z M1272.2,481.4c0.8-0.4,1.5-0.8,2.3-1.2c-5.6-9-11.2-18.1-17.9-28.9
		C1256,465.9,1264.1,473.6,1272.2,481.4z M829.2,387.5c-1-3-1.6-5.1-2.3-7.2c-2.5,1-5,1.9-7.2,2.8c2.6,4.9,4.4,8.3,6.2,11.8
		c3.6-1.8,6.5-3.3,10.6-5.5C832.5,388.4,830.3,387.8,829.2,387.5z M711.4,1434.9c6,9.9,14.8,7.1,22.2,8.7
		C728.5,1435.4,720.2,1436.6,711.4,1434.9z M1075.1,437.9c-1.8-2.6-2.9-5.1-4.7-6.5c-6.7-4.9-14.5,0.7-11.1,7.8
		c10.8-5.5,11.1-5.5,10.8,1.8C1072,439.8,1073.7,438.8,1075.1,437.9z M615.5,1445.7c-0.4,0.7-0.9,1.5-1.3,2.2
		c10.2,5.9,20.4,11.7,30.6,17.6c0.4-0.6,0.8-1.3,1.1-1.9C635.7,1457.6,625.6,1451.6,615.5,1445.7z M757.8,1287.4
		c-0.3,0.2-0.6,0.4-0.9,0.7c1.5,4,2.7,8.2,4.6,12c0.8,1.6,2.7,2.7,4.1,4.1c0.5-2.7,2.2-6.1,1.1-7.9
		C764.5,1292.8,760.9,1290.3,757.8,1287.4z M1255.9,480.2c0,4-0.2,9.1,0.1,14.2c0.2,3.9-0.8,8.6,4.7,10.6
		C1261.8,488.3,1260.7,483.8,1255.9,480.2z M1208.2,430.3c0.8-5.8,1.6-11.1,2.4-16.4c-2.8,0.8-5.2,2.7-6,5.1
		C1203.1,423.8,1205,428.7,1208.2,430.3z M1199.3,302.2c7.6,3.5,11.4,9.5,12.9,17.9c1.7-1.8,3.5-4.1,3-5.6
		C1212.9,307,1205.7,305.2,1199.3,302.2z M1194.8,609.5c0.8,1.8,2,4.1,3.1,6.5c4.3-3.9,7.7-6.9,11.1-10c-0.4-0.5-0.8-1-1.2-1.5
		C1204,605.9,1200.1,607.4,1194.8,609.5z M1161.1,425.7c2.4,0.7,4.9,1.5,7.6,2.3c-0.2-1.6-0.3-2.7-0.4-4.1c2.4,2,4.2,3.7,6.1,5.3
		c0.7-0.9,1.5-1.7,2.2-2.6c-3.5-2.9-7-5.8-9.9-8.3C1164.5,421.3,1163,423.3,1161.1,425.7z M1263.2,535.5c0-6.3,0-11.5,0-18.2
		C1257.3,523.4,1257.5,532.1,1263.2,535.5z M1074.9,447.6c-0.4,0.3-0.8,0.5-1.3,0.8c3.9,2.7,7.8,5.3,12.2,8.4c1.7-2.2,3.3-4.1,4.7-6
		C1085,449.6,1079.9,448.6,1074.9,447.6z M1078.5,459c-4.3-4.5-7.1-7.5-10.6-11.1c-1.3,3.8-2.2,6.5-3.1,9.2
		C1068.9,457.7,1072.5,458.2,1078.5,459z M1060.5,465.2c-9-5.4-12.8-3.7-13.8,4.5C1050.8,468.4,1054.9,467,1060.5,465.2z
		 M760.3,1365.1c1.1,0.1,2.2,0.2,3.3,0.3c0.4-5.6,0.8-11.1,1.1-16.7c-1-0.1-2-0.2-3-0.2C761.2,1354,760.7,1359.6,760.3,1365.1z
		 M1266,512.2c0.7,0.2,1.4,0.4,2.1,0.6c1.6-2.8,3.4-5.5,4.8-8.5c0.4-0.9-0.3-2.4-0.5-3.7c-1.3,0.3-3.4,0.3-3.6,1
		C1267.6,505,1266.9,508.6,1266,512.2z M1094.3,498.9c-3.5-9.9-5.9-12-11.6-11.3C1086.5,491.3,1090.4,495.1,1094.3,498.9z"/>
	<path class="st2" d="M701.1,1155.5c-4.2,2.9-8.9,6.2-13.6,9.5c-1.3,1-2.4,2.3-3.8,3.2c-3.9,2.6-7.7,6.1-12,7.4
		c-5.7,1.7-12.5,0-15.9,6.8c-5.2-2.7-10.8-4.8-15.4-8.3c-3.8-2.9-8.2-7.2-8.8-11.4c-1.2-8-12.2-13.2-6.2-23.1
		c1.1-1.8-0.8-5.3-1.7-9.9c6.8,0,13,0,18.7,0c-0.1,3.3-0.8,7.3-0.3,11.2c0.8,6.3,5.3,4.8,9.9,3.1c0.4,3.4,0.7,6.3,1.1,10.5
		c5.8-8.8,19.6-8.4,19.5-19.1c7.1-1.6,13-2.9,18.9-4.2c0.5-0.1,0.9-0.6,1.3-0.5c7.9,2,14.7,1.6,17.6-9.4c1.3,3.2,1.8,4.6,2.7,6.8
		c3.3-7,8.6-7.6,14.8-7.3c3.9,0.2,7.9-0.9,11.8-1.7c3.4-0.7,4.7-0.3,4.3,3.7c-0.4,4.1-0.2,8.5,0.5,12.6c1.2,6.7-0.2,12.3-4.9,17.3
		c-1.5,1.7-2.6,3.8-3.6,5.9c-1.1,2.4-1.4,6.8-2.7,7.1c-4.3,1-9,0.9-13.4,0.3c-3.6-0.6-6.8-3-10.4-3.9
		C702.8,1160.2,702.4,1160,701.1,1155.5z"/>
	<path class="st2" d="M658.2,1311.7c-8-1.2-18-10.8-18.6-17.9c1.4,0.3,3-2,7.1-10.5c1,1.2,1.8,2.1,2.7,3.1c0.9,1.1,1.9,2.1,1.8,2
		c3.8-1.6,6.8-2.9,10.2-4.3c-3.4-7-6.9-14.3-10.5-21.7c-0.9,0.1-1.8,0.1-2.7,0.2c5.1,8.2,2,14-4.2,19.3
		c-5.6-13.1-11.2-26.2-16.7-39.3c0.6-0.3,1.2-0.7,1.9-1c2.7,3.3,5.5,6.6,8.5,10.3c0.6-0.7,1.5-1.8,2.7-3.2c3.6,3.2,7.2,6.4,12,10.6
		c1.3-1.7,3.6-4.4,5.7-7.1c1.6-2.1,2.9-4.3,4.4-6.4c3.2-4.4,6.4-8.8,9.6-13.1c3.9-5.4,9.6-8.6,15.5-5.6c3.9,2,8.2,7.4,8.6,11.6
		c0.7,8.7,3.2,18.1-2.8,26.5c-2.5,3.5-4.2,7.7-5.5,11.8c-0.8,2.4-0.8,5.5,0,7.8c2.4,6.5,4.7,13.2,8.3,19.1
		c2.7,4.3,3.1,18.7-0.8,22.6c-4,4-14.4,2.1-19.3-2.5c-2.7-2.5-7.1-3.1-10.5-4.9c-2.7-1.4-5.1-3.4-7.6-5.1
		C658,1313.2,658.1,1312.4,658.2,1311.7z"/>
	<path class="st2" d="M353.3,635c-2.1,9-4.3,18.2-6.4,27.3c1.4,0.1,2.7,0.1,5.4,0.2c-6.3,11.6-12.9,21.8-17.5,32.9
		c-4.5,10.7-6.9,22.2-10.2,33.4c6.6,8,1.9,16.2-0.3,23.8c-3.1,10.6-5.1,20.8-4,32c0.6,5.4-2,11.2-3.1,16.8c-0.2,1.2-0.8,2.6-0.4,3.5
		c2.4,5.8,5.1,11.5,7.7,17.2c-0.5,0.4-0.9,0.9-1.4,1.3c-4.4-4.8-8.8-9.5-13.8-14.9c-10.2,20.8-4.8,43-10.8,63.5
		c0.4-10.8,0-21.7,1.5-32.4c4.6-33.9,7.9-68.2,15.6-101.5c7.7-33.5,20.2-66,30.6-98.9c0.3-0.9,0.8-2,1.5-2.4
		C349.2,636.1,350.9,635.8,353.3,635z"/>
</g>
<g>
	<path d="M297.8,130.3c4.3,2.8,10.5,4.8,17.1,4.8c9.8,0,15.5-5.2,15.5-12.7c0-6.8-4-10.9-14-14.6c-12.1-4.4-19.6-10.8-19.6-21.1
		c0-11.6,9.6-20.1,24-20.1c7.5,0,13.1,1.8,16.3,3.6l-2.6,7.8c-2.3-1.4-7.3-3.5-14-3.5c-10.1,0-14,6-14,11.1
		c0,6.9,4.5,10.3,14.7,14.3c12.5,4.8,18.8,10.9,18.8,21.8c0,11.4-8.4,21.5-25.9,21.5c-7.1,0-15-2.2-18.9-4.8L297.8,130.3z"/>
	<path d="M363.6,73.8c0,3.3-2.3,5.9-6.2,5.9c-3.5,0-5.8-2.6-5.8-5.9s2.4-6.1,6.1-6.1C361.2,67.7,363.6,70.4,363.6,73.8z M352.9,142
		V88.8h9.7V142H352.9z"/>
	<path d="M424.1,134.2c0,12.3-2.5,19.7-7.6,24.4c-5.3,4.7-12.8,6.4-19.5,6.4c-6.4,0-13.4-1.5-17.7-4.4l2.4-7.5
		c3.5,2.3,9,4.3,15.6,4.3c9.9,0,17.2-5.2,17.2-18.7v-5.8h-0.2c-2.9,4.9-8.7,8.9-16.9,8.9c-13.2,0-22.7-11.2-22.7-26
		c0-18,11.8-28.2,24.1-28.2c9.2,0,14.2,4.7,16.6,9.1h0.2l0.3-8h8.6c-0.3,3.7-0.4,8.1-0.4,14.5V134.2z M414.5,109.8
		c0-1.7-0.1-3.1-0.5-4.3c-1.8-5.7-6.4-10.3-13.5-10.3c-9.2,0-15.8,7.8-15.8,20.1c0,10.4,5.4,19.1,15.7,19.1c6,0,11.4-3.7,13.4-9.9
		c0.6-1.6,0.8-3.5,0.8-5.2v-9.5H414.5z"/>
	<path d="M439.4,103.2c0-5.6-0.1-10-0.4-14.4h8.6l0.6,8.8h0.2c2.6-4.9,8.8-9.9,17.6-9.9c7.4,0,18.8,4.4,18.8,22.7V142h-9.7v-30.7
		c0-8.6-3.2-15.7-12.3-15.7c-6.3,0-11.2,4.5-13,9.9c-0.4,1.2-0.7,2.9-0.7,4.5v32h-9.7V103.2z"/>
	<path d="M568.4,127.4c0,5.6,0.1,10.4,0.4,14.6h-8.6l-0.6-8.7h-0.2c-2.4,4.3-8.1,9.9-17.6,9.9c-8.4,0-18.4-4.7-18.4-23.3V88.8h9.7
		v29.4c0,10.1,3.2,17.1,11.9,17.1c6.5,0,11-4.5,12.8-8.9c0.6-1.3,0.9-3.1,0.9-5V88.8h9.7L568.4,127.4L568.4,127.4z"/>
	<path d="M584.4,106.1c0-6.8-0.2-12.3-0.4-17.4h8.6l0.6,9.1h0.2c3.9-6.5,10.2-10.2,18.9-10.2c13,0,22.7,10.9,22.7,27
		c0,19.1-11.8,28.6-24.3,28.6c-7,0-13.2-3.1-16.4-8.4H594v28.9h-9.6V106.1z M594,120.3c0,1.4,0.1,2.8,0.4,4
		c1.8,6.7,7.6,11.3,14.5,11.3c10.2,0,16.2-8.4,16.2-20.6c0-10.6-5.6-19.7-15.8-19.7c-6.6,0-12.9,4.6-14.6,11.9
		c-0.3,1.2-0.7,2.6-0.7,3.9L594,120.3L594,120.3z"/>
	<path d="M680.2,76h-22.5v-8.1h54.9V76h-22.7v66h-9.7V76z"/>
	<path d="M760.8,114.9c0,19.7-13.8,28.3-26.5,28.3c-14.3,0-25.5-10.6-25.5-27.4c0-17.7,11.8-28.2,26.4-28.2
		C750.5,87.7,760.8,98.8,760.8,114.9z M718.7,115.5c0,11.7,6.6,20.5,16.1,20.5c9.2,0,16.2-8.7,16.2-20.7c0-9-4.5-20.4-15.9-20.4
		C723.7,94.9,718.7,105.5,718.7,115.5z"/>
	<path d="M818.9,63.9v64.4c0,4.7,0.2,10.1,0.4,13.8h-8.6l-0.4-9.2H810c-2.9,5.9-9.2,10.5-17.9,10.5c-12.9,0-22.9-10.9-22.9-27.1
		c-0.1-17.7,11-28.5,23.9-28.5c8.3,0,13.6,3.9,16.1,8h0.2V63.9H818.9z M809.4,110.4c0-1.2-0.1-2.9-0.4-4.1
		c-1.4-6.1-6.7-11.1-14-11.1c-10,0-15.9,8.8-15.9,20.5c0,10.8,5.4,19.7,15.7,19.7c6.5,0,12.4-4.4,14.2-11.5c0.3-1.3,0.4-2.6,0.4-4.2
		V110.4z"/>
	<path d="M872.5,129.2c0,4.6,0.2,9.1,0.8,12.8h-8.7l-0.8-6.7h-0.3c-3,4.2-8.7,7.9-16.3,7.9c-10.8,0-16.3-7.6-16.3-15.3
		c0-12.9,11.4-19.9,32-19.8V107c0-4.3-1.2-12.3-12.1-12.2c-5.1,0-10.2,1.4-14,4l-2.2-6.5c4.4-2.8,10.9-4.6,17.6-4.6
		c16.3,0,20.2,11.1,20.2,21.7L872.5,129.2L872.5,129.2z M863.1,114.8c-10.6-0.2-22.5,1.6-22.5,12c0,6.4,4.2,9.2,9,9.2
		c7,0,11.5-4.4,13.1-8.9c0.3-1.1,0.4-2.2,0.4-3.1V114.8z"/>
	<path d="M890.8,88.8l11.5,31.5c1.3,3.5,2.6,7.7,3.5,10.9h0.2c1-3.2,2.1-7.3,3.4-11.1L920,88.8h10.2l-14.5,38
		c-6.9,18.3-11.7,27.5-18.3,33.3c-4.8,4.1-9.5,5.7-11.9,6.2l-2.4-8c2.4-0.8,5.6-2.3,8.5-4.7c2.6-2.1,5.8-5.8,8.1-10.8
		c0.4-1,0.8-1.8,0.8-2.3c0-0.6-0.2-1.3-0.8-2.5l-19.6-49.1L890.8,88.8L890.8,88.8z"/>
	<path d="M963.4,142V96.1H956v-7.4h7.4v-2.5c0-7.5,1.8-14.3,6.2-18.6c3.6-3.5,8.5-5,13-5c3.5,0,6.4,0.8,8.3,1.5l-1.3,7.5
		c-1.4-0.7-3.3-1.2-6.2-1.2c-8.3,0-10.3,7.1-10.3,15.4v2.9H986v7.4h-12.9V142H963.4z"/>
	<path d="M1041.2,114.9c0,19.7-13.8,28.3-26.5,28.3c-14.3,0-25.5-10.6-25.5-27.4c0-17.7,11.8-28.2,26.4-28.2
		C1030.9,87.7,1041.2,98.8,1041.2,114.9z M999.1,115.5c0,11.7,6.6,20.5,16.1,20.5c9.2,0,16.2-8.7,16.2-20.7c0-9-4.5-20.4-15.9-20.4
		C1004.1,94.9,999.1,105.5,999.1,115.5z"/>
	<path d="M1053.4,105.4c0-6.3-0.1-11.7-0.4-16.6h8.5l0.4,10.6h0.3c2.4-7.1,8.4-11.7,14.8-11.7c1,0,1.8,0.1,2.6,0.2V97
		c-1-0.2-2-0.2-3.3-0.2c-6.8,0-11.7,5.1-13,12.3c-0.2,1.3-0.3,3-0.3,4.5V142h-9.7L1053.4,105.4L1053.4,105.4z"/>
	<path d="M1169.6,138.7c-4.3,1.6-12.9,4.1-22.9,4.1c-11.2,0-20.5-2.9-27.7-9.8c-6.4-6.2-10.3-16.1-10.3-27.6
		c0-22.1,15.3-38.3,40.2-38.3c8.6,0,15.4,1.9,18.6,3.4l-2.4,7.8c-4-1.9-8.9-3.2-16.4-3.2c-18,0-29.8,11.2-29.8,29.8
		c0,18.8,11.2,29.9,28.6,29.9c6.3,0,10.6-0.9,12.8-2v-22.1h-15V103h24.4L1169.6,138.7L1169.6,138.7z"/>
	<path d="M1183.8,105.4c0-6.3-0.1-11.7-0.4-16.6h8.5l0.4,10.6h0.3c2.4-7.1,8.4-11.7,14.8-11.7c1,0,1.8,0.1,2.6,0.2V97
		c-1-0.2-2-0.2-3.3-0.2c-6.8,0-11.7,5.1-13,12.3c-0.2,1.3-0.3,3-0.3,4.5V142h-9.7L1183.8,105.4L1183.8,105.4z"/>
	<path d="M1224.1,117.1c0.2,13.1,8.5,18.5,18.3,18.5c6.9,0,11.2-1.2,14.7-2.8l1.8,6.9c-3.4,1.5-9.4,3.4-17.8,3.4
		c-16.4,0-26.2-10.9-26.2-27s9.5-28.6,25-28.6c17.5,0,22,15.2,22,25c0,2-0.1,3.4-0.3,4.5h-37.5V117.1z M1252.4,110.2
		c0.1-6.1-2.5-15.6-13.4-15.6c-9.9,0-14.1,8.9-14.8,15.6H1252.4z"/>
	<path d="M1311.2,129.2c0,4.6,0.2,9.1,0.8,12.8h-8.7l-0.8-6.7h-0.3c-3,4.2-8.7,7.9-16.3,7.9c-10.8,0-16.3-7.6-16.3-15.3
		c0-12.9,11.4-19.9,32-19.8V107c0-4.3-1.2-12.3-12.1-12.2c-5.1,0-10.2,1.4-14,4l-2.2-6.5c4.4-2.8,10.9-4.6,17.6-4.6
		c16.3,0,20.2,11.1,20.2,21.7v19.8H1311.2z M1301.8,114.8c-10.6-0.2-22.5,1.6-22.5,12c0,6.4,4.2,9.2,9,9.2c7,0,11.6-4.4,13.1-8.9
		c0.3-1.1,0.4-2.2,0.4-3.1V114.8z"/>
	<path d="M1338,76v12.8h13.9v7.4H1338v28.7c0,6.6,1.9,10.3,7.3,10.3c2.6,0,4.2-0.2,5.6-0.7l0.4,7.4c-1.9,0.7-4.8,1.3-8.6,1.3
		c-4.5,0-8.1-1.5-10.4-4.1c-2.6-3-3.7-7.7-3.7-14v-29h-8.3v-7.4h8.3v-9.9L1338,76z"/>
	<path d="M1386.4,69c5.8-1,12.8-1.6,20.3-1.6c13.8,0,23.5,3.3,30,9.2c6.7,6,10.6,14.6,10.6,26.6c0,12.1-3.9,22-10.7,28.8
		c-7,6.9-18.5,10.7-32.9,10.7c-6.9,0-12.5-0.3-17.4-0.9L1386.4,69L1386.4,69z M1396,134.5c2.4,0.3,5.9,0.4,9.7,0.4
		c20.6,0,31.6-11.4,31.6-31.5c0.1-17.5-9.8-28.6-30-28.6c-5,0-8.7,0.4-11.2,1L1396,134.5L1396,134.5z"/>
	<path d="M1465.2,117.1c0.2,13.1,8.5,18.5,18.3,18.5c6.9,0,11.2-1.2,14.7-2.8l1.8,6.9c-3.4,1.5-9.4,3.4-17.8,3.4
		c-16.4,0-26.2-10.9-26.2-27s9.5-28.6,25-28.6c17.5,0,22,15.2,22,25c0,2-0.1,3.4-0.3,4.5h-37.5V117.1z M1493.5,110.2
		c0.1-6.1-2.5-15.6-13.4-15.6c-9.9,0-14.1,8.9-14.8,15.6H1493.5z"/>
	<path d="M1552.3,129.2c0,4.6,0.2,9.1,0.8,12.8h-8.7l-0.8-6.7h-0.3c-3,4.2-8.7,7.9-16.3,7.9c-10.8,0-16.3-7.6-16.3-15.3
		c0-12.9,11.4-19.9,32-19.8V107c0-4.3-1.2-12.3-12.1-12.2c-5.1,0-10.2,1.4-14,4l-2.2-6.5c4.4-2.8,10.9-4.6,17.6-4.6
		c16.3,0,20.2,11.1,20.2,21.7v19.8H1552.3z M1542.9,114.8c-10.6-0.2-22.5,1.6-22.5,12c0,6.4,4.2,9.2,9,9.2c7,0,11.6-4.4,13.1-8.9
		c0.3-1.1,0.4-2.2,0.4-3.1V114.8z"/>
	<path d="M1567.9,63.9h9.7V142h-9.7V63.9z"/>
	<path d="M1592.5,132.2c3,1.8,8,3.7,12.9,3.7c6.9,0,10.2-3.4,10.2-7.9c0-4.6-2.8-7-9.8-9.7c-9.7-3.5-14.2-8.7-14.2-15.1
		c0-8.6,7-15.6,18.4-15.6c5.4,0,10.1,1.4,13,3.3l-2.3,7c-2.1-1.3-5.9-3.2-10.9-3.2c-5.7,0-8.8,3.3-8.8,7.3c0,4.4,3.1,6.4,10,9.1
		c9.1,3.4,14,8,14,16c0,9.5-7.4,16.1-19.8,16.1c-5.8,0-11.2-1.5-15-3.7L1592.5,132.2z"/>
</g>
<polygon class="st3" points="183,421 173,406.7 155.5,406.8 166,392.9 160.5,376.3 177,382 191,371.6 190.7,389.1 205,399.2 
	188.3,404.3 "/>
<polygon class="st3" points="167,183 155.7,176.7 144.2,182.4 146.7,169.8 137.7,160.5 150.5,159 156.5,147.6 161.9,159.3 
	174.6,161.5 165.2,170.2 "/>
<polygon class="st3" points="364.6,233.2 349.2,229.4 336.9,238.7 336.2,224.3 322.6,216.7 337.6,211.6 341.4,197.7 351.4,208.9 
	367.4,207.9 358.6,219.9 "/>
<polygon class="st3" points="1775,417 1748.1,392.5 1712.7,400.8 1727.7,367.6 1708.8,336.5 1745,340.5 1768.8,313 1776.2,348.6 
	1809.7,362.7 1778.1,380.8 "/>
<polygon class="st3" points="1771,219 1752.6,217.7 1741.1,232.2 1736.6,214.2 1719.4,207.8 1735,198 1735.8,179.6 1749.9,191.4 
	1767.7,186.5 1760.8,203.6 "/>
<polygon class="st3" points="1831,57 1825,59.9 1824.1,66.5 1819.5,61.8 1812.9,62.9 1816,57 1812.9,51.1 1819.5,52.2 1824.1,47.5 
	1825,54.1 "/>
<polygon class="st3" points="1729,91 1705.3,82 1684.4,96.4 1685.7,71 1665.5,55.6 1690,49 1698.4,25.1 1712.3,46.3 1737.7,46.9 
	1721.7,66.7 "/>
<polygon class="st3" points="87,297 80.3,280.3 62.7,276.4 76.5,264.9 74.7,247 90,256.5 106.5,249.3 102.1,266.8 114.1,280.2 
	96.1,281.5 "/>
<polygon class="st3" points="109,63 102.5,61.8 97.8,66.5 96.9,59.9 91,56.8 97,54 98.1,47.4 102.6,52.3 109.2,51.2 106,57.1 "/>
<polygon class="st3" points="770,446.6 768.1,447.5 767.8,449.6 766.3,448.1 764.2,448.5 765.2,446.6 764.2,444.7 766.3,445.1 
	767.8,443.5 768.1,445.7 "/>
</svg>
