<?xml version="1.0" encoding="utf-8"?>
<!-- Generator: Adobe Illustrator 23.0.0, SVG Export Plug-In . SVG Version: 6.00 Build 0)  -->
<svg version="1.1" xmlns="http://www.w3.org/2000/svg" xmlns:xlink="http://www.w3.org/1999/xlink" x="0px" y="0px"
	 viewBox="0 0 1920 1080" style="enable-background:new 0 0 1920 1080;" xml:space="preserve">
<style type="text/css">
	.st0{fill:#4867CC;}
	.st1{fill:#CCC8C8;}
	.st2{fill:#9ACC8D;}
	.st3{font-family:'MyriadPro-Regular';}
	.st4{font-size:50px;}
	.st5{fill:none;stroke:#000000;stroke-width:7;stroke-linecap:round;stroke-miterlimit:10;}
	.st6{fill:#8FCCC0;}
	.st7{font-size:36px;}
	.st8{font-size:25px;}
</style>
<g id="Base">
	<g>
		<path class="st0" d="M605.61,1014.5c-16.05,0-29.11-13.06-29.11-29.11V310.61c0-16.05,13.06-29.11,29.11-29.11h701.78
			c16.05,0,29.11,13.06,29.11,29.11v674.78c0,16.05-13.06,29.11-29.11,29.11H605.61z"/>
		<path d="M1307.39,284c14.67,0,26.61,11.94,26.61,26.61v674.78c0,14.67-11.94,26.61-26.61,26.61H605.61
			c-14.67,0-26.61-11.94-26.61-26.61V310.61c0-14.67,11.94-26.61,26.61-26.61H1307.39 M1307.39,279H605.61
			c-17.46,0-31.61,14.15-31.61,31.61v674.78c0,17.46,14.15,31.61,31.61,31.61h701.78c17.46,0,31.61-14.15,31.61-31.61V310.61
			C1339,293.15,1324.85,279,1307.39,279L1307.39,279z"/>
	</g>
	<g>
		<path class="st1" d="M703.61,977.5c-16.05,0-29.11-13.06-29.11-29.11V774.61c0-16.05,13.06-29.11,29.11-29.11h512.78
			c16.05,0,29.11,13.06,29.11,29.11v173.78c0,16.05-13.06,29.11-29.11,29.11H703.61z"/>
		<path d="M1216.39,748c14.67,0,26.61,11.94,26.61,26.61v173.78c0,14.67-11.94,26.61-26.61,26.61H703.61
			c-14.67,0-26.61-11.94-26.61-26.61V774.61c0-14.67,11.94-26.61,26.61-26.61H1216.39 M1216.39,743H703.61
			c-17.46,0-31.61,14.15-31.61,31.61v173.78c0,17.46,14.15,31.61,31.61,31.61h512.78c17.46,0,31.61-14.15,31.61-31.61V774.61
			C1248,757.15,1233.85,743,1216.39,743L1216.39,743z"/>
	</g>
	<g>
		<path class="st2" d="M703.61,706.5c-16.05,0-29.11-13.06-29.11-29.11V329.61c0-16.05,13.06-29.11,29.11-29.11h512.78
			c16.05,0,29.11,13.06,29.11,29.11v347.78c0,16.05-13.06,29.11-29.11,29.11H703.61z"/>
		<path d="M1216.39,303c14.67,0,26.61,11.94,26.61,26.61v347.78c0,14.67-11.94,26.61-26.61,26.61H703.61
			c-14.67,0-26.61-11.94-26.61-26.61V329.61c0-14.67,11.94-26.61,26.61-26.61H1216.39 M1216.39,298H703.61
			c-17.46,0-31.61,14.15-31.61,31.61v347.78c0,17.46,14.15,31.61,31.61,31.61h512.78c17.46,0,31.61-14.15,31.61-31.61V329.61
			C1248,312.15,1233.85,298,1216.39,298L1216.39,298z"/>
	</g>
	<g>
		<path class="st1" d="M703.61,219.5c-16.05,0-29.11-13.06-29.11-29.11v-83.78c0-16.05,13.06-29.11,29.11-29.11h512.78
			c16.05,0,29.11,13.06,29.11,29.11v83.78c0,16.05-13.06,29.11-29.11,29.11H703.61z"/>
		<path d="M1216.39,80c14.67,0,26.61,11.94,26.61,26.61v83.78c0,14.67-11.94,26.61-26.61,26.61H703.61
			c-14.67,0-26.61-11.94-26.61-26.61v-83.78C677,91.94,688.94,80,703.61,80H1216.39 M1216.39,75H703.61
			C686.15,75,672,89.15,672,106.61v83.78c0,17.46,14.15,31.61,31.61,31.61h512.78c17.46,0,31.61-14.15,31.61-31.61v-83.78
			C1248,89.15,1233.85,75,1216.39,75L1216.39,75z"/>
	</g>
	<text transform="matrix(1 0 0 1 886.1255 167.6665)" class="st3 st4">Brower</text>
	<text transform="matrix(1 0 0 1 862.3765 873.6665)" class="st3 st4">Database</text>
</g>
<g id="tags_and_labels">
	<text transform="matrix(1 0 0 1 301.2222 482.1113)" class="st3 st4">Django</text>
	<text transform="matrix(1 0 0 1 225.2222 700.1113)" class="st3 st4">Server</text>
	<g>
		<line class="st5" x1="480" y1="474" x2="668.5" y2="474"/>
		<polyline class="st5" points="633.5,513.5 671.5,475.5 671.5,472.5 633.5,434.5 		"/>
	</g>
	<g>
		<line class="st5" x1="1152.83" y1="595.5" x2="1152.83" y2="740.74"/>
		<polyline class="st5" points="1126.25,716.18 1151.82,741.75 1153.84,741.75 1179.4,716.18 		"/>
	</g>
	<g>
		<line class="st5" x1="800.83" y1="409.5" x2="800.83" y2="525.5"/>
		<polyline class="st5" points="827.83,551.76 853.4,526.19 853.4,524.17 827.83,498.6 		"/>
		<line class="st5" x1="800.5" y1="525.5" x2="851.5" y2="525.5"/>
	</g>
	<g>
		<line class="st5" x1="1006.58" y1="605.25" x2="890.58" y2="605.25"/>
		<polyline class="st5" points="864.32,578.25 889.89,552.68 891.9,552.68 917.47,578.25 		"/>
		<line class="st5" x1="890.58" y1="605.58" x2="890.58" y2="554.58"/>
	</g>
	<g>
		<line class="st5" x1="1045.5" y1="537.5" x2="1161.5" y2="537.5"/>
		<polyline class="st5" points="1188.58,546.93 1163.01,572.5 1160.99,572.5 1135.42,546.93 		"/>
		<line class="st5" x1="1161.49" y1="537.5" x2="1161.49" y2="572.5"/>
	</g>
	<g>
		<line class="st5" x1="1034.5" y1="524.5" x2="1116.5" y2="524.5"/>
		<polyline class="st5" points="1143.08,452.07 1117.51,426.5 1115.49,426.5 1089.92,452.07 		"/>
		<line class="st5" x1="1116.5" y1="524.5" x2="1116.5" y2="429.5"/>
	</g>
	<g>
		<line class="st5" x1="1014.5" y1="742.5" x2="1014.83" y2="634.51"/>
		<polyline class="st5" points="988.25,659.07 1013.82,633.5 1015.84,633.5 1041.4,659.07 		"/>
	</g>
	<g>
		<g>
			<path class="st6" d="M994.29,630.5c-5.95,0-10.79-4.84-10.79-10.79v-34.41c0-5.95,4.84-10.79,10.79-10.79h178.41
				c5.95,0,10.79,4.84,10.79,10.79v34.41c0,5.95-4.84,10.79-10.79,10.79H994.29z"/>
			<path d="M1172.71,577c4.57,0,8.29,3.72,8.29,8.29v34.41c0,4.57-3.72,8.29-8.29,8.29H994.29c-4.57,0-8.29-3.72-8.29-8.29v-34.41
				c0-4.57,3.72-8.29,8.29-8.29H1172.71 M1172.71,572H994.29c-7.34,0-13.29,5.95-13.29,13.29v34.41c0,7.34,5.95,13.29,13.29,13.29
				h178.41c7.34,0,13.29-5.95,13.29-13.29v-34.41C1186,577.95,1180.05,572,1172.71,572L1172.71,572z"/>
		</g>
		<text transform="matrix(1 0 0 1 1028.4927 614.1172)" class="st3 st7">Models</text>
	</g>
	<g>
		<g>
			<line class="st5" x1="800.5" y1="221.5" x2="800.58" y2="362.74"/>
			<polyline class="st5" points="774,338.18 799.57,363.75 801.59,363.75 827.15,338.18 			"/>
		</g>
		<g>
			<line class="st5" x1="1152.58" y1="366.75" x2="1152.58" y2="221.51"/>
			<polyline class="st5" points="1126,246.07 1151.57,220.5 1153.59,220.5 1179.15,246.07 			"/>
		</g>
		<g>
			<g>
				<path class="st6" d="M994.04,425.5c-5.95,0-10.79-4.84-10.79-10.79v-34.41c0-5.95,4.84-10.79,10.79-10.79h178.41
					c5.95,0,10.79,4.84,10.79,10.79v34.41c0,5.95-4.84,10.79-10.79,10.79H994.04z"/>
				<path d="M1172.46,372c4.57,0,8.29,3.72,8.29,8.29v34.41c0,4.57-3.72,8.29-8.29,8.29H994.04c-4.57,0-8.29-3.72-8.29-8.29v-34.41
					c0-4.57,3.72-8.29,8.29-8.29H1172.46 M1172.46,367H994.04c-7.34,0-13.29,5.95-13.29,13.29v34.41c0,7.34,5.95,13.29,13.29,13.29
					h178.41c7.34,0,13.29-5.95,13.29-13.29v-34.41C1185.75,372.95,1179.8,367,1172.46,367L1172.46,367z"/>
			</g>
			<text transform="matrix(1 0 0 1 1009.9966 409.1172)" class="st3 st7">Templates</text>
		</g>
		<g>
			<g>
				<path class="st6" d="M747.54,471.5c-5.95,0-10.79-4.84-10.79-10.79v-80.41c0-5.95,4.84-10.79,10.79-10.79h178.41
					c5.95,0,10.79,4.84,10.79,10.79v80.41c0,5.95-4.84,10.79-10.79,10.79H747.54z"/>
				<path d="M925.96,372c4.57,0,8.29,3.72,8.29,8.29v80.41c0,4.57-3.72,8.29-8.29,8.29H747.54c-4.57,0-8.29-3.72-8.29-8.29v-80.41
					c0-4.57,3.72-8.29,8.29-8.29H925.96 M925.96,367H747.54c-7.34,0-13.29,5.95-13.29,13.29v80.41c0,7.34,5.95,13.29,13.29,13.29
					h178.41c7.34,0,13.29-5.95,13.29-13.29v-80.41C939.25,372.95,933.3,367,925.96,367L925.96,367z"/>
			</g>
			<text transform="matrix(1 0 0 1 767.9731 409.1172)"><tspan x="0" y="0" class="st3 st7">Get/Post</tspan><tspan x="0" y="43.2" class="st3 st7">Requests</tspan></text>
		</g>
	</g>
	<g>
		<g>
			<path class="st6" d="M1289.29,535.5c-5.95,0-10.79-4.84-10.79-10.79v-59.41c0-5.95,4.84-10.79,10.79-10.79h178.41
				c5.95,0,10.79,4.84,10.79,10.79v59.41c0,5.95-4.84,10.79-10.79,10.79H1289.29z"/>
			<path d="M1467.71,457c4.57,0,8.29,3.72,8.29,8.29v59.41c0,4.57-3.72,8.29-8.29,8.29h-178.41c-4.57,0-8.29-3.72-8.29-8.29v-59.41
				c0-4.57,3.72-8.29,8.29-8.29H1467.71 M1467.71,452h-178.41c-7.34,0-13.29,5.95-13.29,13.29v59.41c0,7.34,5.95,13.29,13.29,13.29
				h178.41c7.34,0,13.29-5.95,13.29-13.29v-59.41C1481,457.95,1475.05,452,1467.71,452L1467.71,452z"/>
		</g>
		<text transform="matrix(1 0 0 1 1318.1389 487.3374)"><tspan x="0" y="0" class="st3 st8">Manage.py </tspan><tspan x="0" y="30" class="st3 st8">= main</tspan></text>
	</g>
	<g>
		<line class="st5" x1="383" y1="690" x2="571.5" y2="690"/>
		<polyline class="st5" points="536.5,729.5 574.5,691.5 574.5,688.5 536.5,650.5 		"/>
	</g>
	<text transform="matrix(1 0 0 1 364.2222 158.1113)" class="st3 st4">User</text>
	<g>
		<line class="st5" x1="482" y1="148" x2="670.5" y2="148"/>
		<polyline class="st5" points="635.5,187.5 673.5,149.5 673.5,146.5 635.5,108.5 		"/>
	</g>
	<g>
		<g>
			<path class="st6" d="M867.29,553.5c-5.95,0-10.79-4.84-10.79-10.79v-34.41c0-5.95,4.84-10.79,10.79-10.79h178.41
				c5.95,0,10.79,4.84,10.79,10.79v34.41c0,5.95-4.84,10.79-10.79,10.79H867.29z"/>
			<path d="M1045.71,500c4.57,0,8.29,3.72,8.29,8.29v34.41c0,4.57-3.72,8.29-8.29,8.29H867.29c-4.57,0-8.29-3.72-8.29-8.29v-34.41
				c0-4.57,3.72-8.29,8.29-8.29H1045.71 M1045.71,495H867.29c-7.34,0-13.29,5.95-13.29,13.29v34.41c0,7.34,5.95,13.29,13.29,13.29
				h178.41c7.34,0,13.29-5.95,13.29-13.29v-34.41C1059,500.95,1053.05,495,1045.71,495L1045.71,495z"/>
		</g>
		<text transform="matrix(1 0 0 1 911.4927 537.1172)" class="st3 st7">Views</text>
	</g>
</g>
</svg>
