<?xml version="1.0" encoding="utf-8"?>
<!-- Generator: Adobe Illustrator 22.0.0, SVG Export Plug-In . SVG Version: 6.00 Build 0)  -->
<svg version="1.1" id="Layer_1" xmlns="http://www.w3.org/2000/svg" xmlns:xlink="http://www.w3.org/1999/xlink" x="0px" y="0px"
	 viewBox="0 0 1920 540" style="enable-background:new 0 0 1920 540;" xml:space="preserve">
<style type="text/css">
	.st0{fill:#E51F1F;}
	.st1{fill:#FFFFFF;}
	.st2{enable-background:new    ;}
	.st3{fill:#243ED3;}
	.st4{fill:#F72121;}
	.st5{fill:#ABACB2;}
	.st6{fill:#191919;}
	.st7{fill:#3F3D3C;}
	.st8{fill:#EDD351;}
</style>
<rect x="627" y="-149" class="st0" width="1428" height="798"/>
<circle class="st1" cx="360" cy="25" r="651"/>
<g class="st2">
	<path class="st0" d="M287.9,209.4c-7,2.5-20.9,6.7-37.3,6.7c-18.4,0-33.5-4.7-45.4-16c-10.4-10.1-16.9-26.3-16.9-45.2
		c0.2-36.2,25-62.6,65.7-62.6c14,0,25,3.1,30.2,5.6l-3.8,12.8c-6.5-2.9-14.6-5.2-26.8-5.2c-29.5,0-48.8,18.4-48.8,48.8
		c0,30.8,18.5,49,46.8,49c10.3,0,17.3-1.4,20.9-3.2v-36.2h-24.7v-12.6h40v58.1H287.9z"/>
	<path class="st0" d="M311.8,95.1c7.9-1.6,19.3-2.5,30.1-2.5c16.7,0,27.5,3.1,35.1,9.9c6.1,5.4,9.5,13.7,9.5,23
		c0,16-10.1,26.6-22.9,31v0.5c9.4,3.2,14.9,11.9,17.8,24.5c4,16.9,6.8,28.6,9.4,33.3h-16.2c-2-3.4-4.7-13.9-8.1-29
		c-3.6-16.7-10.1-23-24.3-23.6h-14.8v52.6h-15.7V95.1H311.8z M327.5,150.4h16c16.7,0,27.4-9.2,27.4-23c0-15.7-11.3-22.5-27.9-22.7
		c-7.6,0-13,0.7-15.5,1.4V150.4z"/>
	<path class="st0" d="M429.2,176.7l-12.6,38.2h-16.2l41.2-121.3h18.9l41.4,121.3h-16.7l-13-38.2H429.2z M469,164.4l-11.9-34.9
		c-2.7-7.9-4.5-15.1-6.3-22.1h-0.4c-1.8,7.2-3.8,14.6-6.1,22l-11.9,35.1H469V164.4z"/>
	<path class="st0" d="M519.7,214.8V93.5h17.1l38.9,61.4c9,14.2,16,27,21.8,39.4l0.4-0.2c-1.4-16.2-1.8-31-1.8-49.9V93.5h14.8v121.3
		H595l-38.5-61.6c-8.5-13.5-16.6-27.4-22.7-40.5l-0.5,0.2c0.9,15.3,1.3,29.9,1.3,50v51.8L519.7,214.8L519.7,214.8z"/>
	<path class="st0" d="M638.2,95.1c9.5-1.4,20.9-2.5,33.3-2.5c22.5,0,38.5,5.2,49.1,15.1c10.8,9.9,17.1,23.9,17.1,43.6
		c0,19.8-6.1,36-17.5,47.2c-11.3,11.3-30.1,17.5-53.6,17.5c-11.2,0-20.5-0.5-28.4-1.4L638.2,95.1L638.2,95.1z M653.8,202.4
		c4,0.7,9.7,0.9,15.8,0.9c33.5,0,51.7-18.7,51.7-51.5c0.2-28.6-16-46.8-49.1-46.8c-8.1,0-14.2,0.7-18.4,1.6V202.4z"/>
</g>
<g class="st2">
	<path class="st3" d="M207.2,368.9c0,41.8-25.4,63.9-56.3,63.9c-32,0-54.5-24.8-54.5-61.6c0-38.5,23.9-63.7,56.3-63.7
		C185.8,307.5,207.2,332.9,207.2,368.9z M113.1,370.9c0,25.9,14,49.1,38.7,49.1c24.8,0,38.9-22.9,38.9-50.4
		c0-24.1-12.6-49.3-38.7-49.3C126.1,320.3,113.1,344.3,113.1,370.9z"/>
	<path class="st3" d="M227.6,311c7.6-1.3,17.5-2.3,30.1-2.3c15.5,0,26.8,3.6,34,10.1c6.7,5.8,10.6,14.6,10.6,25.4
		c0,11-3.2,19.6-9.4,25.9c-8.3,8.8-21.8,13.3-37.1,13.3c-4.7,0-9-0.2-12.6-1.1v48.6h-15.7L227.6,311L227.6,311z M243.2,369.5
		c3.4,0.9,7.7,1.3,13,1.3c18.9,0,30.4-9.2,30.4-25.9c0-16-11.3-23.8-28.6-23.8c-6.8,0-12.1,0.5-14.8,1.3V369.5z"/>
	<path class="st3" d="M386.2,374H339v43.7h52.6v13.1h-68.2V309.5h65.5v13.1H339V361h47.2V374z"/>
	<path class="st3" d="M411.9,430.8V309.5H429l38.9,61.4c9,14.2,16,27,21.8,39.4l0.4-0.2c-1.4-16.2-1.8-31-1.8-49.9v-50.8H503v121.3
		h-15.8l-38.5-61.6c-8.5-13.5-16.6-27.4-22.7-40.5l-0.5,0.2c0.9,15.3,1.3,29.9,1.3,50v51.8h-14.9V430.8z"/>
	<path class="st3" d="M546,309.5v121.3h-15.7V309.5H546z"/>
	<path class="st3" d="M573.4,430.8V309.5h17.1l38.9,61.4c9,14.2,16,27,21.8,39.4l0.4-0.2c-1.4-16.2-1.8-31-1.8-49.9v-50.8h14.8
		v121.3h-15.8l-38.5-61.6c-8.5-13.5-16.6-27.4-22.7-40.5l-0.5,0.2c0.9,15.3,1.3,29.9,1.3,50v51.8h-15V430.8z"/>
	<path class="st3" d="M784.1,425.4c-7,2.5-20.9,6.7-37.3,6.7c-18.4,0-33.5-4.7-45.4-16c-10.4-10.1-16.9-26.3-16.9-45.2
		c0.2-36.2,25-62.6,65.7-62.6c14,0,25,3.1,30.2,5.6l-3.8,12.8c-6.5-2.9-14.6-5.2-26.8-5.2c-29.5,0-48.8,18.4-48.8,48.8
		c0,30.8,18.5,49,46.8,49c10.3,0,17.3-1.4,20.9-3.2v-36.2H744v-12.6h40L784.1,425.4L784.1,425.4z"/>
</g>
<g class="st2">
	<path class="st3" d="M804.5,421.7c0-6.5,4.5-11.2,10.6-11.2c6.5,0,10.6,4.7,10.6,11.2c0,6.3-4.1,11.2-10.6,11.2
		C808.8,432.8,804.5,428,804.5,421.7z M809,395.9l-2.5-86.4h17.3l-2.5,86.4H809z"/>
</g>
<g>
	<circle class="st1" cx="1678.8" cy="189.1" r="170.5"/>
	<polygon class="st4" points="1678.8,51.2 1709.7,146.5 1809.9,146.5 1728.9,205.4 1759.8,300.7 1678.8,241.8 1597.7,300.7 
		1628.7,205.4 1547.6,146.5 1647.8,146.5 	"/>
</g>
<g class="st2">
	<path d="M1078.3,390c7.9-1.6,19.3-2.5,30.1-2.5c16.7,0,27.5,3.1,35.1,9.9c6.1,5.4,9.5,13.7,9.5,23c0,16-10.1,26.6-22.9,31v0.5
		c9.4,3.2,14.9,11.9,17.8,24.5c4,16.9,6.8,28.6,9.4,33.3h-16.2c-2-3.4-4.7-13.9-8.1-29c-3.6-16.7-10.1-23-24.3-23.6h-14.8v52.6
		h-15.7L1078.3,390L1078.3,390z M1093.9,445.2h16c16.7,0,27.4-9.2,27.4-23c0-15.7-11.3-22.5-27.9-22.7c-7.6,0-13,0.7-15.5,1.4V445.2
		z"/>
	<path d="M1184.1,469c0.4,21.4,14,30.2,29.9,30.2c11.3,0,18.2-2,24.1-4.5l2.7,11.3c-5.6,2.5-15.1,5.4-29,5.4
		c-26.8,0-42.8-17.6-42.8-43.9s15.5-47,40.9-47c28.4,0,36,25,36,41c0,3.2-0.4,5.8-0.5,7.4h-61.3V469z M1230.6,457.6
		c0.2-10.1-4.1-25.7-22-25.7c-16,0-23,14.8-24.3,25.7H1230.6z"/>
	<path d="M1340.7,381.9v105.3c0,7.7,0.2,16.6,0.7,22.5h-14.2l-0.7-15.1h-0.4c-4.9,9.7-15.5,17.1-29.7,17.1
		c-21.1,0-37.3-17.8-37.3-44.3c-0.2-29,17.8-46.8,39.1-46.8c13.3,0,22.3,6.3,26.3,13.3h0.4v-52L1340.7,381.9L1340.7,381.9z
		 M1324.9,458c0-2-0.2-4.7-0.7-6.7c-2.3-10.1-11-18.4-22.9-18.4c-16.4,0-26.1,14.4-26.1,33.7c0,17.6,8.6,32.2,25.7,32.2
		c10.6,0,20.3-7,23.2-18.9c0.5-2.2,0.7-4.3,0.7-6.8V458H1324.9z"/>
	<path d="M1403.5,490.6c7,4.3,17.3,7.9,28.1,7.9c16,0,25.4-8.5,25.4-20.7c0-11.3-6.5-17.8-22.9-24.1c-19.8-7-32-17.3-32-34.4
		c0-18.9,15.7-32.9,39.2-32.9c12.4,0,21.4,2.9,26.8,5.9l-4.3,12.8c-4-2.2-12.1-5.8-23-5.8c-16.6,0-22.9,9.9-22.9,18.2
		c0,11.3,7.4,16.9,24.1,23.4c20.5,7.9,31,17.8,31,35.6c0,18.7-13.9,34.9-42.5,34.9c-11.7,0-24.5-3.4-31-7.7L1403.5,490.6z"/>
	<path d="M1512.4,397.5v25h22.7v12.1h-22.7v47c0,10.8,3.1,16.9,11.9,16.9c4.1,0,7.2-0.5,9.2-1.1l0.7,11.9c-3.1,1.3-7.9,2.2-14,2.2
		c-7.4,0-13.3-2.3-17.1-6.7c-4.5-4.7-6.1-12.4-6.1-22.7v-47.5h-13.5v-12.1h13.5v-20.9L1512.4,397.5z"/>
	<path d="M1601.2,509.7l-1.3-11h-0.5c-4.9,6.8-14.2,13-26.6,13c-17.6,0-26.6-12.4-26.6-25c0-21.1,18.7-32.6,52.4-32.4v-1.8
		c0-7.2-2-20.2-19.8-20.2c-8.1,0-16.6,2.5-22.7,6.5l-3.6-10.4c7.2-4.7,17.6-7.7,28.6-7.7c26.6,0,33.1,18.2,33.1,35.6v32.6
		c0,7.6,0.4,14.9,1.4,20.9h-14.4V509.7z M1598.8,465.2c-17.3-0.4-36.9,2.7-36.9,19.6c0,10.3,6.8,15.1,14.9,15.1
		c11.3,0,18.5-7.2,21.1-14.6c0.5-1.6,0.9-3.4,0.9-5V465.2z"/>
	<path d="M1639.7,449.7c0-10.3-0.2-19.1-0.7-27.2h13.9l0.5,17.1h0.7c4-11.7,13.5-19.1,24.1-19.1c1.8,0,3.1,0.2,4.5,0.5v15
		c-1.6-0.4-3.2-0.5-5.4-0.5c-11.2,0-19.1,8.5-21.2,20.3c-0.4,2.2-0.7,4.7-0.7,7.4v46.4h-15.7L1639.7,449.7L1639.7,449.7z"/>
</g>
<g class="st2">
	<path d="M1729.5,455.7h7v48.1h23v5.8h-30V455.7z"/>
	<path d="M1770.4,461.7H1754v-5.9h39.9v5.9h-16.5v48h-7V461.7z"/>
	<path d="M1799.9,456.5c4.2-0.6,9.3-1.1,14.8-1.1c10,0,17.1,2.3,21.8,6.7c4.8,4.4,7.6,10.6,7.6,19.4s-2.7,16-7.8,21
		c-5,5-13.4,7.8-23.8,7.8c-5,0-9.1-0.2-12.6-0.6V456.5z M1806.9,504.1c1.8,0.3,4.3,0.4,7,0.4c14.9,0,23-8.3,23-22.9
		c0.1-12.7-7.1-20.8-21.8-20.8c-3.6,0-6.3,0.3-8.2,0.7V504.1z"/>
	<path d="M1848.6,505.5c0-3,2-5,4.8-5s4.7,2.1,4.7,5s-1.8,5-4.8,5C1850.5,510.5,1848.6,508.4,1848.6,505.5z"/>
</g>
<g>
	<path class="st5" d="M1288.6,234.3L1288.6,234.3c10.9,2.7,17.5,13.6,14.9,24.5l-17.7,72.3c-2.7,10.9-13.6,17.5-24.5,14.9l0,0
		c-10.9-2.7-17.5-13.6-14.9-24.5l17.7-72.3C1266.8,238.3,1277.8,231.7,1288.6,234.3z"/>
	<path class="st6" d="M1284.3,316.8l-29.9-7.3c-5.9-1.5-11.9,2.2-13.4,8.1l0,0c-1.4,5.9,2.2,11.9,8.1,13.4l29.9,7.3
		c5.9,1.5,11.9-2.2,13.4-8.1l0,0C1293.8,324.2,1290.2,318.2,1284.3,316.8z"/>
	<path class="st6" d="M1247.8,155.6l66.9,16.4c18.3,4.5,29.5,22.9,25,41.2l-4.1,16.8c-4.5,18.3-22.9,29.5-41.2,25l-66.9-16.4
		c-18.3-4.5-29.5-22.9-25-41.2l4.1-16.8C1211.1,162.4,1229.5,151.2,1247.8,155.6z"/>
	<path class="st7" d="M1127.2,146.1l17.3,4.2c10.5,2.6,16.9,13.2,14.4,23.7l0,0c-2.6,10.5-13.2,16.9-23.7,14.4l-17.3-4.2
		c-10.5-2.6-16.9-13.2-14.4-23.7l0,0C1106.1,149.9,1116.7,143.5,1127.2,146.1z"/>
	<path class="st5" d="M1217.8,238.3l-118.8,14c-5.6,0.7-10.1-4.4-8.7-9.9L1128,88.8c1.3-5.4,7.7-7.9,12.3-4.7l98.8,67.4
		c2.8,1.9,4.1,5.3,3.3,8.5l-17.7,72.2C1223.8,235.5,1221.1,237.9,1217.8,238.3z"/>
</g>
<polygon class="st8" points="1079,112 1027,52 1019,76 976,8 1020,96 1027,69 "/>
<polygon class="st8" points="1059.9,149.9 946.2,130.5 956.3,164.6 847,128 974.2,186 960.3,149.5 "/>
<polygon class="st8" points="1065.4,202.6 979.5,228.8 1000.7,248.1 910.6,261.4 1021.8,256.3 997.1,236.6 "/>
<polygon class="st0" points="84.4,100.7 64.8,79.5 36.2,83.7 50.3,58.5 37.5,32.6 65.8,38.2 86.4,18 89.9,46.7 115.4,60.1 
	89.3,72.2 "/>
<polygon class="st0" points="126.8,260.5 107.6,256.6 93.5,270.2 91.3,250.8 74.1,241.6 91.9,233.5 95.3,214.2 108.5,228.6 
	127.8,225.9 118.2,243 "/>
<polygon class="st0" points="880.7,59.3 863.1,58.5 852.4,72.5 847.8,55.5 831.2,49.7 845.9,40.1 846.3,22.5 860,33.5 876.9,28.5 
	870.6,44.9 "/>
<polygon class="st0" points="900.8,287 892.2,279 880.7,281.6 885.7,270.9 879.7,260.8 891.4,262.3 899.1,253.5 901.4,265 
	912.1,269.6 901.9,275.3 "/>
<polygon class="st1" points="136.3,149.4 126.4,142.5 115.1,146.8 118.6,135.2 111.1,125.8 123.1,125.6 129.7,115.5 133.7,126.9 
	145.3,130 135.7,137.3 "/>
<polygon class="st1" points="1005.6,491.4 990.8,486.9 978.7,496.6 978.3,481.2 965.4,472.7 980,467.6 984,452.6 993.4,464.9 
	1008.9,464.1 1000.1,476.9 "/>
<polygon class="st1" points="1332.8,104.9 1326.6,100.3 1319.3,102.7 1321.8,95.4 1317.1,89.2 1324.9,89.3 1329.3,83 1331.6,90.4 
	1339,92.7 1332.7,97.2 "/>
<polygon class="st1" points="1421.7,289.1 1412.6,288.3 1406.8,295.3 1404.8,286.5 1396.3,283.1 1404.2,278.4 1404.7,269.4 
	1411.6,275.3 1420.4,273.1 1416.8,281.4 "/>
<polygon class="st1" points="1871.7,335.7 1879,328.3 1877,318 1886.3,322.7 1895.4,317.6 1893.9,327.9 1901.5,335 1891.3,336.7 
	1886.9,346.2 1882.1,337 "/>
<polygon class="st1" points="1874.9,62.5 1865,58.9 1856.4,64.9 1856.8,54.4 1848.4,48.1 1858.6,45.2 1862,35.3 1867.8,44 
	1878.3,44.2 1871.8,52.5 "/>
</svg>
